<svg width="16" height="16" viewBox="0 0 16 16" fill="none" xmlns="http://www.w3.org/2000/svg">
<path d="M8.47958 10.5201C8.3859 10.6139 8.25881 10.6666 8.12624 10.6667L7.87291 10.6667C7.74063 10.6652 7.61406 10.6127 7.51958 10.5201L4.09958 7.09341C4.03647 7.03083 4.00098 6.94563 4.00098 6.85675C4.00098 6.76787 4.03647 6.68267 4.09958 6.62008L4.57291 6.14675C4.63435 6.08404 4.71845 6.0487 4.80624 6.0487C4.89404 6.0487 4.97813 6.08404 5.03958 6.14675L7.99958 9.11341L10.9596 6.14675C11.0222 6.08364 11.1074 6.04815 11.1962 6.04815C11.2851 6.04815 11.3703 6.08364 11.4329 6.14675L11.8996 6.62008C11.9627 6.68267 11.9982 6.76787 11.9982 6.85675C11.9982 6.94563 11.9627 7.03083 11.8996 7.09341L8.47958 10.5201Z" fill="#121212"/>
</svg>
