<svg width="32" height="32" viewBox="0 0 32 32" fill="none" xmlns="http://www.w3.org/2000/svg">
<path d="M21.0397 15.0401C21.2273 15.2275 21.3328 15.4817 21.333 15.7468V16.2534C21.3299 16.518 21.2249 16.7712 21.0397 16.9601L14.1863 23.8001C14.0612 23.9263 13.8908 23.9973 13.713 23.9973C13.5352 23.9973 13.3649 23.9263 13.2397 23.8001L12.293 22.8534C12.1676 22.7306 12.0969 22.5624 12.0969 22.3868C12.0969 22.2112 12.1676 22.043 12.293 21.9201L18.2263 16.0001L12.293 10.0801C12.1668 9.95494 12.0958 9.78454 12.0958 9.60678C12.0958 9.42902 12.1668 9.25863 12.293 9.13345L13.2397 8.20012C13.3649 8.07391 13.5352 8.00292 13.713 8.00292C13.8908 8.00292 14.0612 8.07391 14.1863 8.20012L21.0397 15.0401Z" fill="#808080"/>
</svg>
