<svg width="32" height="32" viewBox="0 0 32 32" fill="none" xmlns="http://www.w3.org/2000/svg">
<path d="M10.9603 16.9599C10.7727 16.7725 10.6672 16.5183 10.667 16.2532V15.7466C10.6701 15.482 10.7751 15.2288 10.9603 15.0399L17.8137 8.19988C17.9388 8.07368 18.1092 8.00269 18.287 8.00269C18.4648 8.00269 18.6351 8.07368 18.7603 8.19988L19.707 9.14655C19.8324 9.26944 19.9031 9.43763 19.9031 9.61322C19.9031 9.7888 19.8324 9.957 19.707 10.0799L13.7737 15.9999L19.707 21.9199C19.8332 22.0451 19.9042 22.2155 19.9042 22.3932C19.9042 22.571 19.8332 22.7414 19.707 22.8666L18.7603 23.7999C18.6351 23.9261 18.4648 23.9971 18.287 23.9971C18.1092 23.9971 17.9388 23.9261 17.8137 23.7999L10.9603 16.9599Z" fill="#E7E7E7"/>
</svg>
