<svg width="187" height="60" viewBox="0 0 187 60" fill="none" xmlns="http://www.w3.org/2000/svg">
<path d="M45.2615 27.0734C45.2615 25.4009 43.589 23.6239 40.3486 23.9375C38.1534 24.1466 35.9583 25.2964 33.6587 26.3417L33.9723 24.8783L34.8085 20.9061C35.3311 18.5019 35.7493 17.6657 36.2719 17.6657C36.5855 17.6657 36.7946 17.8748 37.0036 18.2929C37.2127 18.711 37.5263 19.2337 38.258 19.2337C38.9897 19.2337 39.4078 18.6065 39.4078 17.7702C39.4078 16.7249 38.467 15.7842 37.3172 15.7842C34.5994 15.7842 32.5088 18.8155 31.2545 24.6692L30.6273 27.596C29.6865 28.1187 28.9548 28.3277 28.1186 28.3277C27.7005 28.3277 27.1778 28.2232 26.8642 28.1187C26.8642 27.9096 27.0733 27.387 27.0733 26.6553C27.0733 24.9828 26.1325 24.5647 25.4008 24.6692C24.5646 24.6692 23.4148 25.0873 23.4148 26.9689C23.4148 27.9096 24.0419 28.7459 25.0872 29.2685C24.9827 29.4776 24.9827 29.4776 24.9827 29.6866C24.1465 31.7772 20.2789 39.3033 19.7562 38.4671C17.143 34.8086 19.9653 25.7145 19.9653 25.7145C19.6517 25.61 17.4566 24.4601 15.0524 24.4601C12.4392 24.4601 11.1848 26.6553 10.9757 28.6413C10.8712 29.8957 11.2893 30.6274 12.1256 30.7319C12.8573 30.8364 13.4845 30.2093 13.589 29.2685C13.6935 28.5368 13.2754 28.1187 12.9618 27.9096C12.7528 27.7006 12.6482 27.596 12.6482 27.387C12.6482 26.9688 13.1709 26.5507 13.589 26.6553C13.6935 26.6553 13.798 26.7598 14.1116 26.7598C14.8433 26.9688 16.6203 27.7006 17.2475 26.9689C14.8433 31.9863 15.5751 40.5577 19.6517 40.1396C22.0559 39.826 24.4601 34.2859 26.6552 29.4776C26.6552 29.373 27.3869 29.8957 30.1047 29.6866C30.2092 29.6866 30.2092 29.6866 30.3137 29.6866L28.2231 39.4079C27.805 41.1849 27.2824 43.38 26.3416 43.38C26.028 43.38 25.819 43.0664 25.6099 42.6483C25.4008 42.2302 24.9827 41.603 24.251 41.603C23.5193 41.603 22.9967 42.2302 22.9967 43.0664C22.9967 44.4253 24.1465 45.157 25.2963 45.157C28.1186 45.157 30.2092 42.0211 31.5681 35.6448L32.927 29.0594C34.5994 28.5368 36.0629 27.4915 37.2127 26.8643C37.0036 27.387 36.8991 28.2232 36.8991 28.7459C36.8991 30.4183 37.8399 31.7772 38.7806 33.3452C39.5123 34.5995 40.244 35.7493 40.244 36.5856C40.244 37.4218 39.4078 38.1535 38.5716 38.1535C37.8399 38.1535 37.5263 37.5263 37.3172 36.8992C37.0036 36.272 36.69 35.5403 35.8538 35.5403C35.1221 35.5403 34.5994 36.272 34.5994 37.2128C34.5994 38.6762 35.9583 39.826 37.7353 39.826C40.3486 39.826 42.1256 37.9445 42.1256 35.3312C42.1256 33.3452 40.9757 31.6727 39.9304 30.1047C39.1987 29.0594 38.6761 28.1187 38.5716 27.387C38.5716 26.0281 40.5576 25.0873 41.6029 25.0873C42.021 25.0873 42.4392 25.1918 42.7527 25.2964C42.1256 25.61 41.812 26.1326 41.812 26.9689C41.812 28.0141 42.6482 28.4323 43.2754 28.4323C44.7388 28.7459 45.2615 27.9096 45.2615 27.0734Z" fill="#ABABAB"/>
<path d="M46.9337 36.4809C46.9337 35.4356 46.3066 34.5994 45.3658 34.5994C44.5296 34.5994 43.7979 35.3311 43.7979 36.4809C43.7979 37.5262 44.5296 38.1534 45.3658 38.1534C46.4111 38.2579 46.9337 37.5262 46.9337 36.4809Z" fill="#ABABAB"/>
<path d="M30.1045 1.46341C14.3206 1.46341 1.46341 14.216 1.46341 30C1.46341 45.784 14.3206 58.5366 30 58.5366C45.784 58.5366 58.5366 45.784 58.5366 30C58.5366 14.216 45.784 1.46341 30.1045 1.46341ZM30.1045 60C13.4843 60 0 46.4112 0 30C0 13.5889 13.4843 0 30.1045 0C46.6202 0 60 13.4843 60 29.8955C60 46.3066 46.6202 60 30.1045 60Z" fill="#ABABAB"/>
<path d="M109.234 38.467C109.966 38.467 110.488 37.9444 110.488 37.1081C110.488 36.3764 109.861 35.8538 109.234 35.8538C108.502 35.8538 107.875 36.3764 107.875 37.1081C107.875 37.8398 108.502 38.467 109.234 38.467Z" fill="#ABABAB"/>
<path d="M77.7697 38.2578H78.0833L83.8324 24.6689H81.7418L78.815 31.986C78.3969 32.9268 77.9788 34.3902 77.9788 34.3902C77.9788 34.3902 77.5607 32.8223 77.1425 31.986L74.1112 24.6689H71.8115L77.7697 38.2578Z" fill="#ABABAB"/>
<path d="M86.4463 38.0487H88.5369V33.1358H94.286V31.1498H88.5369V26.4459H94.9132V24.6689H86.4463V38.0487Z" fill="#ABABAB"/>
<path d="M101.184 38.2579C103.798 38.2579 105.575 36.899 105.575 34.5993C105.575 32.4042 104.32 31.3589 102.125 30.4181L101.184 30C99.8255 29.3729 99.1983 28.9547 99.1983 27.9094C99.1983 26.9687 99.93 26.3415 100.975 26.3415C102.021 26.3415 102.648 26.7596 103.17 27.7004L104.843 26.6551C104.007 25.1917 102.752 24.46 101.08 24.46C98.7802 24.46 97.3168 25.9234 97.3168 27.8049C97.3168 29.8955 98.5711 30.8363 100.453 31.777L101.393 32.1952C102.857 32.8223 103.693 33.345 103.693 34.5993C103.693 35.7492 102.648 36.4809 101.289 36.4809C99.6164 36.4809 98.7802 35.6446 98.2575 34.5993L96.2715 35.4356C97.0032 37.0035 98.5711 38.2579 101.184 38.2579Z" fill="#ABABAB"/>
<path d="M118.955 38.2579C121.568 38.2579 123.345 37.3171 124.181 36.4809V31.2544H118.641V33.1359H122.195V35.5401C121.463 36.0627 120.209 36.4809 118.85 36.4809C115.819 36.4809 113.833 34.2857 113.833 31.4634C113.833 28.6411 115.819 26.446 118.641 26.446C120.314 26.446 121.254 26.9687 121.986 27.8049L123.45 26.3415C122.3 25.0871 120.732 24.46 118.641 24.46C114.669 24.46 111.638 27.2823 111.638 31.3589C111.742 35.331 114.774 38.2579 118.955 38.2579Z" fill="#ABABAB"/>
<path d="M127.004 38.0487H135.366V36.1672H129.094V24.6689H127.004V38.0487Z" fill="#ABABAB"/>
<path d="M149.686 31.2542C149.686 27.2821 146.654 24.2507 142.682 24.2507C138.71 24.2507 135.679 27.073 135.679 31.2542C135.679 35.2263 138.71 38.2577 142.682 38.2577C146.654 38.2577 149.686 35.3309 149.686 31.2542ZM147.595 31.2542C147.595 34.0765 145.609 36.2716 142.787 36.2716C140.069 36.2716 137.978 34.0765 137.978 31.2542C137.978 28.4319 140.069 26.2368 142.787 26.2368C145.609 26.2368 147.595 28.4319 147.595 31.2542Z" fill="#ABABAB"/>
<path d="M160.977 28.0139C160.977 26.1324 159.618 24.6689 157.214 24.6689H152.301V38.1533H157.527C160.35 38.1533 161.918 36.3763 161.918 34.0766C161.918 32.2996 160.977 31.1498 159.2 30.7317C160.35 30.1045 160.977 29.2682 160.977 28.0139ZM154.391 31.5679H157.318C158.991 31.5679 159.827 32.5087 159.827 33.8676C159.827 35.2264 158.991 36.1672 157.423 36.1672H154.391V31.5679ZM158.991 28.1184C158.991 29.1637 158.363 29.8954 157.109 29.8954H154.391V26.5505H157.109C158.363 26.4459 158.991 27.0731 158.991 28.1184Z" fill="#ABABAB"/>
<path d="M175.609 38.0488L169.651 24.46H169.442L163.692 38.0488H165.783L167.037 35.0175H172.264L173.518 38.0488H175.609ZM171.323 33.1359H167.665L168.919 30.2091C169.232 29.3729 169.546 28.1185 169.546 28.1185C169.546 28.1185 169.86 29.3729 170.278 30.2091L171.323 33.1359Z" fill="#ABABAB"/>
<path d="M177.805 38.0487H186.272V36.1672H180V24.6689H177.805V38.0487Z" fill="#ABABAB"/>
</svg>
