<svg width="142" height="39" viewBox="0 0 142 39" fill="none" xmlns="http://www.w3.org/2000/svg">
<g clip-path="url(#clip0_1099_14977)">
<path d="M-6.46484 9.32007H3.05167C5.41245 9.32007 7.19832 9.92763 8.40929 11.1427C8.86553 11.5916 9.2252 12.1279 9.46649 12.719C9.70777 13.3101 9.82563 13.9438 9.81292 14.5815V14.6392C9.82112 15.1617 9.74788 15.6823 9.5958 16.1824C9.46032 16.613 9.26364 17.0222 9.01172 17.3976C8.77687 17.7515 8.49271 18.0706 8.16771 18.3454C7.85018 18.6169 7.50235 18.8513 7.13105 19.0441C8.20181 19.4146 9.1647 20.0404 9.93524 20.8667C10.6162 21.6363 10.9566 22.6995 10.9566 24.0564V24.1141C10.976 24.9615 10.7903 25.8012 10.4153 26.5626C10.052 27.2641 9.51931 27.8653 8.86493 28.3124C8.12513 28.8051 7.30139 29.1602 6.43382 29.3604C5.40308 29.6032 4.34641 29.7205 3.28713 29.7098H-6.46484V9.32007ZM2.09757 17.5646C2.92092 17.6042 3.74028 17.4282 4.47364 17.0543C4.75963 16.8883 4.99314 16.6462 5.14771 16.3552C5.30228 16.0642 5.37175 15.736 5.34823 15.4078V15.3501C5.36337 15.0477 5.30154 14.7464 5.16845 14.474C5.03537 14.2016 4.83531 13.967 4.58679 13.7917C4.07916 13.4332 3.34626 13.254 2.38808 13.254H-2.06438V17.5646H2.09757ZM3.29937 25.7819C4.11965 25.8275 4.93615 25.6411 5.65403 25.2442C5.93369 25.0657 6.16006 24.816 6.30958 24.5211C6.4591 24.2262 6.52629 23.8968 6.50416 23.5673V23.5096C6.51517 23.1964 6.44873 22.8854 6.31065 22.6036C6.17258 22.3219 5.96707 22.0781 5.71213 21.8935C5.18616 21.4885 4.33603 21.2859 3.16176 21.2859H-2.06438V25.7819H3.29937Z" fill="#C3C5C8"/>
<path d="M16.625 9.32004H21.1425V29.7158H16.625V9.32004Z" fill="#C3C5C8"/>
<path d="M27.9766 9.3201H32.1416L41.7682 21.8723V9.3201H46.2267V29.7159H42.3828L32.4412 16.7505V29.7159H27.9766V9.3201Z" fill="#C3C5C8"/>
<path d="M59.8986 9.17459H64.0575L72.8554 29.7162H68.1399L66.2623 25.1413H57.5806L55.703 29.7162H51.0977L59.8986 9.17459ZM64.6507 21.18L61.9169 14.5636L59.1953 21.18H64.6507Z" fill="#C3C5C8"/>
<path d="M77.7422 9.3201H81.9072L91.5277 21.8723V9.3201H95.9862V29.7159H92.1423L82.2008 16.7505V29.7159H77.7422V9.3201Z" fill="#C3C5C8"/>
<path d="M112.239 30.0746C110.8 30.0868 109.373 29.8099 108.044 29.2605C106.792 28.7472 105.657 27.9904 104.705 27.0347C103.753 26.0789 103.003 24.9434 102.499 23.6952C101.968 22.3896 101.699 20.9933 101.707 19.5851V19.5274C101.684 16.7515 102.759 14.0775 104.701 12.0817C105.657 11.1068 106.801 10.3339 108.065 9.80946C109.44 9.24371 110.916 8.96155 112.404 8.98014C113.284 8.97362 114.163 9.05195 115.028 9.21405C115.768 9.35308 116.492 9.56788 117.187 9.85503C117.818 10.1189 118.418 10.451 118.976 10.8453C119.52 11.2299 120.032 11.6587 120.505 12.1273L117.633 15.4203C116.9 14.7478 116.077 14.1785 115.187 13.7282C114.313 13.3131 113.354 13.1052 112.386 13.1207C111.58 13.1121 110.781 13.274 110.043 13.5956C109.305 13.9172 108.644 14.3911 108.105 14.9859C107.57 15.5791 107.151 16.2663 106.869 17.0121C106.575 17.8002 106.427 18.635 106.432 19.4757V19.5334C106.429 20.373 106.577 21.2063 106.869 21.9941C107.147 22.7425 107.562 23.4336 108.093 24.0324C108.628 24.6346 109.287 25.1154 110.026 25.4425C110.764 25.7695 111.565 25.9351 112.374 25.928C113.403 25.9602 114.425 25.7401 115.349 25.287C116.229 24.8109 117.042 24.2226 117.768 23.5373L120.643 26.4232C120.135 26.9704 119.586 27.4782 119 27.9421C118.425 28.394 117.8 28.7802 117.138 29.0934C116.432 29.4234 115.689 29.6672 114.924 29.8194C114.04 29.9954 113.141 30.0809 112.239 30.0746Z" fill="#C3C5C8"/>
<path d="M125.973 9.32004H141.425V13.3117H130.416V17.4492H140.11V21.4408H130.431V25.7241H141.578V29.7158H125.982L125.973 9.32004Z" fill="#C3C5C8"/>
</g>
<defs>
<clipPath id="clip0_1099_14977">
<rect width="193.575" height="38.4615" fill="white" transform="translate(-52)"/>
</clipPath>
</defs>
</svg>
