<svg width="195" height="39" viewBox="0 0 195 39" fill="none" xmlns="http://www.w3.org/2000/svg">
<g clip-path="url(#clip0_1099_14905)">
<path d="M12.493 16.1619L20.0123 8.69497L27.5347 16.1679L31.9074 11.8209L20.0123 0.000793457L8.11719 11.8178L12.493 16.1619Z" fill="#C3C5C8"/>
<path d="M0.650391 19.2332L5.02561 14.8877L9.40082 19.2332L5.02561 23.5787L0.650391 19.2332Z" fill="#C3C5C8"/>
<path d="M12.4933 22.3017L20.0126 29.7716L27.5349 22.2986L31.9107 26.6397L31.9077 26.6427L20.0126 38.4627L8.11744 26.6488L8.11133 26.6427L12.4933 22.3017Z" fill="#C3C5C8"/>
<path d="M30.6172 19.2342L34.9919 14.8882L39.3666 19.2342L34.9919 23.5802L30.6172 19.2342Z" fill="#C3C5C8"/>
<path d="M24.4488 19.23L20.0116 14.8192L16.7304 18.0787L16.3512 18.4524L15.5745 19.224L15.5684 19.23L15.5745 19.2391L20.0116 23.6439L24.4488 19.2331L24.4519 19.23H24.4488Z" fill="#C3C5C8"/>
<path d="M46.1875 9.32013H55.704C58.0648 9.32013 59.8507 9.92769 61.0616 11.1428C61.5179 11.5917 61.8775 12.1279 62.1188 12.7191C62.3601 13.3102 62.478 13.9438 62.4653 14.5816V14.6393C62.4735 15.1618 62.4002 15.6823 62.2481 16.1825C62.1127 16.6131 61.916 17.0223 61.6641 17.3976C61.4292 17.7516 61.1451 18.0707 60.8201 18.3454C60.5025 18.6169 60.1547 18.8513 59.7834 19.0441C60.8542 19.4146 61.817 20.0405 62.5876 20.8668C63.2685 21.6364 63.609 22.6996 63.609 24.0565V24.1142C63.6283 24.9616 63.4427 25.8013 63.0677 26.5627C62.7043 27.2642 62.1716 27.8654 61.5173 28.3124C60.7775 28.8051 59.9537 29.1602 59.0862 29.3605C58.0554 29.6033 56.9988 29.7206 55.9395 29.7098H46.1875V9.32013ZM54.7499 17.5647C55.5733 17.6042 56.3926 17.4282 57.126 17.0544C57.412 16.8884 57.6455 16.6462 57.8001 16.3552C57.9546 16.0642 58.0241 15.7361 58.0006 15.4079V15.3502C58.0157 15.0478 57.9539 14.7464 57.8208 14.4741C57.6877 14.2017 57.4877 13.967 57.2391 13.7918C56.7315 13.4333 55.9986 13.2541 55.0404 13.2541H50.588V17.5647H54.7499ZM55.9517 25.7819C56.772 25.8276 57.5885 25.6412 58.3064 25.2443C58.586 25.0658 58.8124 24.8161 58.9619 24.5211C59.1114 24.2262 59.1786 23.8969 59.1565 23.5674V23.5097C59.1675 23.1965 59.1011 22.8854 58.963 22.6037C58.8249 22.3219 58.6194 22.0781 58.3645 21.8936C57.8385 21.4885 56.9884 21.286 55.8141 21.286H50.588V25.7819H55.9517Z" fill="#C3C5C8"/>
<path d="M69.2773 9.32007H73.7949V29.7158H69.2773V9.32007Z" fill="#C3C5C8"/>
<path d="M80.6289 9.32013H84.7939L94.4205 21.8723V9.32013H98.8791V29.7159H95.0352L85.0936 16.7506V29.7159H80.6289V9.32013Z" fill="#C3C5C8"/>
<path d="M112.551 9.17462H116.71L125.508 29.7162H120.792L118.915 25.1413H110.233L108.355 29.7162H103.75L112.551 9.17462ZM117.303 21.18L114.569 14.5637L111.848 21.18H117.303Z" fill="#C3C5C8"/>
<path d="M130.395 9.32013H134.56L144.18 21.8723V9.32013H148.639V29.7159H144.795L134.853 16.7506V29.7159H130.395V9.32013Z" fill="#C3C5C8"/>
<path d="M164.892 30.0746C163.452 30.0869 162.025 29.8099 160.696 29.2605C159.445 28.7473 158.31 27.9905 157.357 27.0347C156.405 26.0789 155.655 24.9434 155.152 23.6953C154.62 22.3896 154.351 20.9934 154.36 19.5851V19.5274C154.336 16.7515 155.411 14.0776 157.354 12.0818C158.309 11.1069 159.453 10.3339 160.717 9.80949C162.092 9.24374 163.569 8.96158 165.057 8.98017C165.937 8.97365 166.815 9.05198 167.68 9.21408C168.42 9.35311 169.144 9.56791 169.839 9.85506C170.47 10.1189 171.07 10.451 171.628 10.8454C172.173 11.23 172.684 11.6588 173.157 12.1273L170.286 15.4203C169.552 14.7478 168.729 14.1785 167.839 13.7282C166.966 13.3132 166.007 13.1052 165.038 13.1207C164.232 13.1121 163.434 13.274 162.696 13.5956C161.958 13.9172 161.297 14.3911 160.757 14.9859C160.222 15.5791 159.803 16.2663 159.522 17.0121C159.227 17.8003 159.079 18.635 159.084 19.4758V19.5335C159.082 20.373 159.23 21.2063 159.522 21.9941C159.8 22.7426 160.214 23.4336 160.745 24.0324C161.28 24.6346 161.939 25.1155 162.678 25.4425C163.417 25.7695 164.217 25.9351 165.026 25.928C166.056 25.9603 167.078 25.7401 168.001 25.2871C168.881 24.8109 169.694 24.2227 170.42 23.5373L173.295 26.4232C172.787 26.9704 172.238 27.4782 171.653 27.9421C171.077 28.394 170.453 28.7802 169.79 29.0934C169.085 29.4234 168.341 29.6672 167.576 29.8194C166.693 29.9955 165.793 30.081 164.892 30.0746Z" fill="#C3C5C8"/>
<path d="M178.625 9.32007H194.077V13.3117H183.068V17.4492H192.762V21.4409H183.084V25.7242H194.23V29.7158H178.634L178.625 9.32007Z" fill="#C3C5C8"/>
</g>
<defs>
<clipPath id="clip0_1099_14905">
<rect width="193.575" height="38.4615" fill="white" transform="translate(0.652344)"/>
</clipPath>
</defs>
</svg>
