<svg width="158" height="42" viewBox="0 0 158 42" fill="none" xmlns="http://www.w3.org/2000/svg">
<g clip-path="url(#clip0_1099_15023)">
<path d="M47.9101 20.9599C50.1032 20.9599 51.4632 19.835 51.4632 18.0383V18.0242C51.4632 16.6801 50.4307 15.6685 48.9995 15.5623V15.5199C50.1245 15.3714 50.9719 14.4235 50.9719 13.3129V13.2987C50.9719 11.7353 49.7615 10.752 47.8317 10.752H43.36V20.9599H47.9101ZM47.0556 14.9753H45.5104V12.3367H47.2762C48.2731 12.3367 48.857 12.8036 48.857 13.61V13.6241C48.857 14.473 48.2018 14.9753 47.0555 14.9753H47.0556ZM47.3619 19.3682H45.5104V16.4255H47.312C48.5794 16.4255 49.27 16.9348 49.27 17.8827V17.8968C49.27 18.8588 48.5936 19.3683 47.3618 19.3683L47.3619 19.3682ZM61.762 20.9599V19.1985H57.2688V10.752H55.1184V20.9599H61.762ZM69.6753 21.1367C72.7301 21.1367 74.6313 19.1064 74.6313 15.8595V15.8453C74.6313 12.6055 72.723 10.5752 69.6753 10.5752C66.6348 10.5752 64.7193 12.5984 64.7193 15.8453V15.8595C64.7193 19.1065 66.6205 21.1367 69.6753 21.1367ZM69.6753 19.3258C67.9877 19.3258 66.9125 17.9958 66.9125 15.8595V15.8453C66.9125 13.7091 67.9948 12.3861 69.6753 12.3861C71.3628 12.3861 72.4381 13.7161 72.4381 15.8453V15.8595C72.4381 17.9747 71.3843 19.3258 69.6753 19.3258ZM83.0146 21.1367C85.4997 21.1367 87.3012 19.5876 87.5006 17.4158L87.5077 17.338H85.4143L85.4 17.4088C85.1223 18.6184 84.2536 19.3258 83.0146 19.3258C81.3697 19.3258 80.3158 17.9958 80.3158 15.8453V15.8383C80.3158 13.7019 81.3697 12.3861 83.0145 12.3861C84.2963 12.3861 85.1366 13.1219 85.3787 14.2466L85.4071 14.3669H87.5006L87.4935 14.3032C87.294 12.1386 85.5068 10.5752 83.0145 10.5752C80.0168 10.5752 78.1228 12.556 78.1228 15.8453V15.8525C78.1228 19.1419 80.0097 21.1367 83.0145 21.1367H83.0146ZM93.4131 20.9599V17.8331L94.3886 16.6447L97.4221 20.9599H99.9926L95.9481 15.2511L99.7292 10.752H97.3366L93.463 15.421H93.4132V10.752H91.2627V20.9599H93.4131ZM107.472 21.1367C109.957 21.1367 111.758 19.5876 111.958 17.4158L111.965 17.338H109.871L109.857 17.4088C109.579 18.6184 108.711 19.3258 107.472 19.3258C105.827 19.3258 104.773 17.9958 104.773 15.8453V15.8383C104.773 13.7019 105.827 12.3861 107.472 12.3861C108.753 12.3861 109.593 13.1219 109.836 14.2466L109.864 14.3669H111.958L111.95 14.3032C111.751 12.1386 109.964 10.5752 107.472 10.5752C104.474 10.5752 102.58 12.556 102.58 15.8453V15.8525C102.58 19.1419 104.467 21.1367 107.472 21.1367ZM117.87 20.9599V16.6588H122.498V20.9599H124.649V10.752H122.498V14.8974H117.87V10.752H115.72V20.9599H117.87ZM130.39 20.9599L131.159 18.4839H134.77L135.539 20.9599H137.803L134.228 10.752H131.701L128.133 20.9599H130.39ZM134.271 16.8852H131.658L132.947 12.7328H132.989L134.271 16.8852ZM143.431 20.9599V10.752H141.28V20.9599H143.431ZM149.714 20.9599V14.2749H149.756L154.413 20.9599H156.279V10.752H154.135V17.3875H154.093L149.45 10.752H147.57V20.9599H149.714ZM43.5675 29.8593L44.1006 28.2829H46.3425L46.8755 29.8593H47.8358L45.7158 24.0263H44.7312L42.6113 29.8593H43.5675ZM46.0983 27.5552H44.3446L45.2113 24.9925H45.2317L46.0983 27.5552ZM54.9523 29.9564C56.2503 29.9564 57.2228 29.1761 57.4059 28.0161L57.41 27.9756H56.5067L56.4945 28.012C56.2747 28.7518 55.7336 29.156 54.9523 29.156C53.8659 29.156 53.162 28.2908 53.162 26.9408V26.9367C53.162 25.5866 53.8618 24.7297 54.9523 24.7297C55.7417 24.7297 56.287 25.146 56.4823 25.8292L56.5067 25.9099H57.41L57.4019 25.8737C57.2187 24.7216 56.2463 23.9293 54.9523 23.9293C53.2882 23.9293 52.2302 25.0854 52.2302 26.9368V26.9408C52.2302 28.7921 53.2882 29.9563 54.9523 29.9563V29.9564ZM62.8501 29.8593L63.3832 28.2829H65.6251L66.1581 29.8593H67.1185L64.9985 24.0263H64.0138L61.8939 29.8593H62.8501ZM65.381 27.5552H63.6272L64.4939 24.9925H64.5143L65.381 27.5552ZM74.0031 29.8593C75.7527 29.8593 76.7822 28.776 76.7822 26.9327V26.9247C76.7822 25.0894 75.7446 24.0263 74.0031 24.0263H71.932V29.8593H74.0031ZM73.9177 29.0751H72.8434V24.8065H73.9177C75.1546 24.8065 75.8503 25.5624 75.8503 26.9327V26.9408C75.8503 28.3192 75.1627 29.0751 73.9177 29.0751ZM85.5466 29.8593V29.0791H82.7309V27.2681H85.3961V26.5083H82.7309V24.8065H85.5466V24.0262H81.8195V29.8593H85.5466ZM91.4791 29.8593V25.5543H91.5076L93.2776 29.8593H93.953L95.7229 25.5543H95.7515V29.8593H96.5816V24.0263H95.5318L93.6274 28.683H93.6031L91.7029 24.0263H90.6491V29.8593H91.4791ZM104.374 29.8593V27.4703L106.445 24.0263H105.431L103.934 26.6013H103.906L102.408 24.0263H101.395L103.462 27.4703V29.8593H104.374Z" fill="#C3C5C8"/>
<path d="M20.1643 0.197388L38.0708 10.468V31.0093L20.1643 41.2799L2.25781 31.0093V10.468L20.1643 0.197388Z" fill="#C3C5C8"/>
<path fill-rule="evenodd" clip-rule="evenodd" d="M11.1016 5.18006L17.3125 11.2874L20.2684 0.000976562L11.1016 5.18006Z" fill="#C3C5C8"/>
<path fill-rule="evenodd" clip-rule="evenodd" d="M17.3123 11.2881L21.5442 15.1459L15.9082 17.0968L17.3123 11.2881Z" fill="#C3C5C8"/>
<path fill-rule="evenodd" clip-rule="evenodd" d="M23.809 14.4452L24.8191 18.2939L14.0898 24.2646L15.9086 17.0952L23.809 14.4452Z" fill="#C3C5C8"/>
<path fill-rule="evenodd" clip-rule="evenodd" d="M14.0894 24.2647L12.0195 32.0414L20.2683 41.2754L27.3357 28.5993L24.8186 18.2939L14.0894 24.2647Z" fill="#C3C5C8"/>
<path fill-rule="evenodd" clip-rule="evenodd" d="M20.5269 0.161163L23.8067 14.4461L21.5424 15.1451L17.3105 11.2874L20.5269 0.161163Z" fill="#C3C5C8"/>
<path fill-rule="evenodd" clip-rule="evenodd" d="M11.103 5.38879L17.3119 11.2868L15.9077 17.0954L2.125 20.8336V10.4674L11.103 5.38879Z" fill="#C3C5C8"/>
<path fill-rule="evenodd" clip-rule="evenodd" d="M15.9077 17.0967L14.0889 24.2661L8.39155 27.5386L2.36328 21.0771L15.9077 17.0967Z" fill="#C3C5C8"/>
<path fill-rule="evenodd" clip-rule="evenodd" d="M8.39181 27.5377L2.23417 30.8575L2.125 20.9747L8.39181 27.5377Z" fill="#C3C5C8"/>
<path fill-rule="evenodd" clip-rule="evenodd" d="M2.125 31.045L10.9759 36.2446L12.0191 32.0425L8.39171 27.5381L2.125 31.045Z" fill="#C3C5C8"/>
<path fill-rule="evenodd" clip-rule="evenodd" d="M8.39062 27.5379L12.018 32.0423L14.0878 24.2656L8.39062 27.5379Z" fill="#C3C5C8"/>
<path fill-rule="evenodd" clip-rule="evenodd" d="M12.0197 32.043L20.1643 41.3478L10.9766 35.9395L12.0197 32.043Z" fill="#C3C5C8"/>
<path fill-rule="evenodd" clip-rule="evenodd" d="M20.2676 41.2767L29.1691 36.2448L27.335 28.6006L20.2676 41.2767Z" fill="#C3C5C8"/>
<path fill-rule="evenodd" clip-rule="evenodd" d="M27.334 28.7431L30.423 23.5841L38.0696 31.009L29.1681 36.2442L27.334 28.7431Z" fill="#C3C5C8"/>
<path fill-rule="evenodd" clip-rule="evenodd" d="M27.3335 28.7426L30.4226 23.5835L24.8164 18.2939L27.3335 28.7426Z" fill="#C3C5C8"/>
<path fill-rule="evenodd" clip-rule="evenodd" d="M30.4238 23.5191L38.0705 10.4679V30.8577L30.4238 23.5191Z" fill="#C3C5C8"/>
<path fill-rule="evenodd" clip-rule="evenodd" d="M30.4226 23.5193L24.8164 18.2949L38.0692 10.5176L30.4226 23.5193Z" fill="#C3C5C8"/>
<path fill-rule="evenodd" clip-rule="evenodd" d="M24.8186 18.2949L37.804 10.5176L23.8086 14.4462L24.8186 18.2949Z" fill="#C3C5C8"/>
<path fill-rule="evenodd" clip-rule="evenodd" d="M23.8086 14.446L38.0715 10.468L20.5605 0.161133L23.8086 14.446Z" fill="#C3C5C8"/>
<path fill-rule="evenodd" clip-rule="evenodd" d="M24.4853 32.3808C25.2332 32.3808 25.8394 32.9831 25.8394 33.7261C25.8394 34.4691 25.2332 35.0714 24.4853 35.0714C23.7374 35.0714 23.1312 34.4691 23.1312 33.7261C23.1312 32.9831 23.7374 32.3808 24.4853 32.3808ZM8.3398 25.758C9.5479 25.758 10.5273 26.7309 10.5273 27.9311C10.5273 29.1313 9.5479 30.1042 8.3398 30.1042C7.1317 30.1042 6.15234 29.1313 6.15234 27.9311C6.15234 26.7309 7.1317 25.758 8.3398 25.758ZM30.4227 22.2396C31.1706 22.2396 31.7768 22.8418 31.7768 23.5848C31.7768 24.3278 31.1706 24.9301 30.4227 24.9301C29.6748 24.9301 29.0685 24.3278 29.0685 23.5848C29.0685 22.8418 29.6748 22.2396 30.4227 22.2396ZM24.6415 16.1341C25.7058 16.1341 26.5686 16.9912 26.5686 18.0485C26.5686 19.1058 25.7058 19.9629 24.6415 19.9629C23.5773 19.9629 22.7145 19.1058 22.7145 18.0485C22.7145 16.9912 23.5773 16.1341 24.6415 16.1341ZM16.1001 14.1679C17.567 14.1679 18.7562 15.3494 18.7562 16.8067C18.7562 18.2641 17.567 19.4455 16.1001 19.4455C14.6331 19.4455 13.4439 18.2641 13.4439 16.8067C13.4439 15.3494 14.6331 14.1679 16.1001 14.1679ZM21.8812 4.95801C22.6291 4.95801 23.2353 5.56027 23.2353 6.30328C23.2353 7.04628 22.6291 7.64855 21.8812 7.64855C21.1333 7.64855 20.527 7.04628 20.527 6.30328C20.527 5.56027 21.1333 4.95801 21.8812 4.95801Z" fill="white"/>
<path d="M20.2669 0.162109L11.1025 36.1445M2.36328 30.8587L38.0692 10.5184L2.36328 30.8587ZM20.2669 0.162109L29.168 36.2454L20.2669 0.162109ZM11.1004 5.181L38.347 31.2011L11.1004 5.181ZM20.2669 41.0563L38.0692 10.5184L20.2669 41.0563ZM2.36328 20.8352L38.0692 10.4689L2.36328 20.8352ZM2.36328 20.8352L20.0825 41.0563L2.36328 20.8352Z" stroke="white" stroke-width="0.520942" stroke-linecap="round"/>
</g>
<defs>
<clipPath id="clip0_1099_15023">
<rect width="157.408" height="41.3462" fill="white" transform="translate(0.496094)"/>
</clipPath>
</defs>
</svg>
