<svg width="127" height="125" viewBox="0 0 127 125" fill="none" xmlns="http://www.w3.org/2000/svg">
<path fill-rule="evenodd" clip-rule="evenodd" d="M17.5762 53.2216H8.61053C8.61053 53.2216 12.8143 51.0135 17.5762 53.2216ZM18.6494 54.134C18.6494 54.1626 18.6076 55.0477 18.6076 55.0477H6.1L6.99625 54.1574L18.6494 54.134ZM18.1624 58.7694C18.152 58.8038 17.0762 57.0684 13.8888 56.9789C10.702 56.8901 7.63269 58.8822 7.42185 63.0857C7.21166 67.2905 11.8404 68.3975 12.8 68.0797C12.8783 68.0531 14.6708 68.3404 16.9933 66.6154C17.0312 66.5889 16.4182 71.6412 16.4182 71.6412C16.4182 71.6412 15.1232 72.6522 12.2882 72.7547C9.4526 72.8558 2.56203 71.5679 2.52351 62.9593C2.5072 59.2292 5.08235 56.0432 5.08235 56.0432H18.4549C18.4555 56.0432 18.1729 58.735 18.1624 58.7694ZM25.4127 54.2696L25.0275 55.0828H32.5343L32.3417 54.2696H25.4127ZM26.2495 52.4045H31.9455C31.9455 52.4045 32.1009 53.315 32.0832 53.2754C32.0656 53.2359 25.8755 53.2754 25.8755 53.2754L26.2495 52.4045ZM40.6625 52.4726H45.6039L45.7632 53.2307H40.3322L40.6625 52.4726ZM40.2258 54.2799L46.055 54.2748L46.2887 55.145L40.0509 55.1489L40.2258 54.2799ZM39.8074 56.1891C39.8759 56.193 46.5224 56.1891 46.5224 56.1891L48.7999 65.2387L53.2961 56.2468H60.3629L58.3185 71.9681H53.9972L54.9319 61.1772L49.7346 71.9097H45.8807L43.6032 61.1202L41.7924 71.9097H37.2381C37.2381 71.9103 39.7389 56.1858 39.8074 56.1891ZM55.0475 52.4759C55.0475 52.4759 54.5709 53.2839 54.6388 53.2884C54.7067 53.2923 60.6547 53.2884 60.6547 53.2884L60.7709 52.4759H55.0475ZM53.8209 55.145L54.1728 54.3325H60.5946L60.4784 55.145H53.8209ZM63.3989 52.4759H69.9389C69.9389 52.4759 71.7582 52.4233 73.2667 53.4045C73.3216 53.4401 63.2814 53.4045 63.2814 53.4045L63.3989 52.4759ZM63.1646 54.3915L63.0484 55.2027H74.7851L74.3196 54.3915H63.1646ZM62.8147 56.2468L60.5953 71.9681H68.8306C68.8306 71.9681 75.1813 72.195 75.195 66.0506C75.2054 61.5897 72.1094 61.7038 72.1094 61.7038C72.1094 61.7038 74.9319 61.2564 74.9613 57.5814C74.9717 56.3097 75.0201 56.2468 75.0201 56.2468H62.8147ZM66.4943 63.6143L65.9675 67.9079H68.2444C68.2444 67.9079 70.922 67.4961 70.64 65.5292C70.3567 63.5611 69.2477 63.6207 68.3044 63.5572C68.2398 63.552 66.4943 63.6143 66.4943 63.6143ZM67.6621 56.3635C67.73 56.3681 67.0779 60.2512 67.0779 60.2512C67.0779 60.2512 70.3965 60.5936 70.58 58.1041C70.7666 55.6139 67.5936 56.3583 67.6621 56.3635ZM78.9353 54.4168L78.8674 55.2332L91.2229 55.3013L90.6035 54.4168H78.9353ZM79.1416 53.3247L89.5754 53.3922C89.5754 53.3922 89.3443 52.6756 85.869 52.5744C82.3911 52.472 79.2545 52.5744 79.2774 52.5744C79.3035 52.5751 79.1416 53.3247 79.1416 53.3247ZM83.4675 56.4614C83.2161 56.4284 82.6424 61.5067 82.6424 61.5067L83.8102 61.4386C83.8102 61.4386 87.2169 61.1312 86.8292 58.5749C86.4408 56.0185 85.006 56.6677 83.4675 56.4614ZM78.5933 56.4614L76.3288 72.0076H81.2703L82.2305 64.574L85.6627 72.0076H91.1537L86.8292 64.2349C86.8292 64.2349 90.956 63.4865 91.5657 57.962C91.7262 56.4965 91.7034 56.4621 91.7034 56.4621H78.5933V56.4614ZM94.8588 56.4614H105.224L105.156 57.2111H99.6645L99.1162 60.3478H104.4L103.806 64.3373L98.4281 64.3704C98.4281 64.3704 97.857 68.0862 97.8798 67.985C97.904 67.8839 103.509 67.985 103.509 67.985L103.028 72.0076H92.7321L94.8588 56.4614ZM95.6376 52.6088L95.3393 53.3247H105.636L105.59 52.6088H95.6376ZM95.2028 54.6204L95.1343 55.3013H105.429V54.6204H95.2028ZM103.988 72.0076H109.41L113.94 65.871L117.234 72.0076H118.401L110.164 56.4614H109.135L111.949 61.7122L103.988 72.0076Z" fill="#C3C5C8"/>
<path fill-rule="evenodd" clip-rule="evenodd" d="M107.279 52.5752H112.841L115.586 57.9615L119.086 52.5752H124.646L117.713 61.9848L122.997 72.0078H121.9L112.152 53.461H107.691L107.279 52.5752Z" fill="#C3C5C8"/>
<path fill-rule="evenodd" clip-rule="evenodd" d="M108.241 54.5518H111.469L120.735 72.0071H119.635L110.851 55.4376L108.653 55.3689L108.241 54.5518ZM24.4978 56.1341H32.7742L36.1908 71.9099H31.2343L30.2238 68.2757H23.7758L22.1883 71.9099H17.1836L24.4978 56.1341ZM28.4438 57.3305L29.5012 64.1662H25.4593L28.4438 57.3305Z" fill="#C3C5C8"/>
</svg>
