<svg width="38" height="38" viewBox="0 0 38 38" fill="none" xmlns="http://www.w3.org/2000/svg">
<g clip-path="url(#clip0_1099_15262)">
<path d="M11.0833 17.4166H14.25V20.5833H11.0833V17.4166ZM33.25 9.49996V31.6666C33.25 33.4083 31.825 34.8333 30.0833 34.8333H7.91667C6.15917 34.8333 4.75 33.4083 4.75 31.6666L4.76583 9.49996C4.76583 7.75829 6.15917 6.33329 7.91667 6.33329H9.5V3.16663H12.6667V6.33329H25.3333V3.16663H28.5V6.33329H30.0833C31.825 6.33329 33.25 7.75829 33.25 9.49996ZM7.91667 12.6666H30.0833V9.49996H7.91667V12.6666ZM30.0833 31.6666V15.8333H7.91667V31.6666H30.0833ZM23.75 20.5833H26.9167V17.4166H23.75V20.5833ZM17.4167 20.5833H20.5833V17.4166H17.4167V20.5833Z" fill="#18202F"/>
</g>
<defs>
<clipPath id="clip0_1099_15262">
<rect width="38" height="38" fill="white"/>
</clipPath>
</defs>
</svg>
