<svg width="158" height="29" viewBox="0 0 158 29" fill="none" xmlns="http://www.w3.org/2000/svg">
<g clip-path="url(#clip0_1099_14974)">
<path d="M138.377 0.0107422C138.105 0.0106689 137.845 0.117848 137.652 0.308724C137.46 0.4996 137.352 0.758555 137.351 1.02868V8.16196H156.322L147.683 0.0129515L138.377 0.0107422ZM157.017 10.3199C157.017 10.1862 156.991 10.0538 156.939 9.93034C156.888 9.80684 156.812 9.69467 156.717 9.60025C156.622 9.50583 156.508 9.43102 156.384 9.38012C156.26 9.32921 156.126 9.30321 155.992 9.30361H148.812V28.1495L157.014 19.5647L157.017 10.3199ZM146.637 28.8336C146.908 28.8328 147.168 28.7252 147.36 28.5343C147.551 28.3433 147.659 28.0847 147.659 27.8151V20.6826H128.689L137.327 28.8316L146.637 28.8336ZM127.996 18.5255C127.996 18.6592 128.023 18.7916 128.074 18.9152C128.125 19.0387 128.201 19.151 128.296 19.2456C128.391 19.3402 128.504 19.4152 128.629 19.4664C128.753 19.5176 128.886 19.544 129.021 19.544H136.201V0.69673L127.997 9.27931L127.996 18.5255Z" fill="#C3C5C8"/>
<path d="M41.0412 3.45076V12.1537H28.8349V3.45076L24.3908 3.4491V25.3933H28.8349V15.9659H41.0412V25.3933H45.4934V3.45076H41.0412ZM100.18 3.45076V25.3894L119.685 25.3883L117.213 21.5275H104.64V15.9659H116.815V12.2454H104.64V7.22258H117.193L119.614 3.45076H100.18ZM7.86778 3.44799C3.24242 3.44799 0.90625 6.23889 0.90625 10.3032V18.4955C0.90625 23.1975 3.91514 25.3938 7.84387 25.3938L21.7886 25.391L19.2053 21.3809H8.70451C6.47481 21.3809 5.50353 20.5803 5.50353 18.0998V10.6683C5.50353 8.27007 6.32053 7.33443 8.764 7.33443H19.3148L21.7967 3.44827L7.86778 3.44799ZM80.6727 3.44164C78.0004 3.44164 75.2656 5.03538 75.2656 9.1375V10.1913C75.2656 14.4649 77.8998 16.0982 80.5331 16.11H89.783C90.7434 16.11 91.5243 16.268 91.5243 17.8819L91.5232 19.7471C91.4993 21.1931 90.7696 21.5275 89.7499 21.5275H77.5823L75.0897 25.388H90.0346C93.6406 25.388 96.0871 23.6076 96.0871 19.4911V17.9788C96.0871 13.9999 93.8143 12.1223 90.2887 12.1223H81.4571C80.4773 12.1223 79.7959 11.8552 79.7959 10.4145L79.7948 8.89779C79.7948 7.6708 80.264 7.22258 81.4046 7.22258L92.9918 7.21817L95.4144 3.4375L80.6727 3.44164ZM58.4107 3.45407L47.9366 25.391H52.8877L54.9275 20.8606H66.3085L68.3419 25.391H73.3128L62.8148 3.45379L58.4107 3.45407ZM60.6056 8.00744L64.6305 17.1266H56.606L60.6056 8.00744Z" fill="#C3C5C8"/>
</g>
<defs>
<clipPath id="clip0_1099_14974">
<rect width="156.109" height="28.8462" fill="white" transform="translate(0.90625)"/>
</clipPath>
</defs>
</svg>
