<svg width="86" height="36" viewBox="0 0 86 36" fill="none" xmlns="http://www.w3.org/2000/svg">
<path d="M52.7443 15.1818C52.6676 14.5341 52.3565 14.0312 51.8111 13.6733C51.2656 13.3153 50.5966 13.1364 49.804 13.1364C49.2244 13.1364 48.7173 13.2301 48.2827 13.4176C47.8523 13.6051 47.5156 13.8629 47.2727 14.1911C47.0341 14.5192 46.9148 14.892 46.9148 15.3097C46.9148 15.6591 46.9979 15.9595 47.1641 16.2109C47.3345 16.4581 47.5518 16.6648 47.8161 16.831C48.0803 16.9929 48.3572 17.1271 48.647 17.2337C48.9368 17.3359 49.2031 17.419 49.446 17.483L50.7756 17.8409C51.1165 17.9304 51.4957 18.054 51.9134 18.2116C52.3352 18.3693 52.7379 18.5845 53.1214 18.8572C53.5092 19.1257 53.8288 19.4709 54.0803 19.8928C54.3317 20.3146 54.4574 20.8324 54.4574 21.446C54.4574 22.1534 54.272 22.7926 53.9013 23.3636C53.5348 23.9347 52.9979 24.3885 52.2905 24.7251C51.5874 25.0618 50.733 25.2301 49.7273 25.2301C48.7898 25.2301 47.978 25.0788 47.2919 24.7763C46.6101 24.4737 46.0732 24.0518 45.6811 23.5107C45.2933 22.9695 45.0739 22.3409 45.0227 21.625H46.6591C46.7017 22.1193 46.8679 22.5284 47.1577 22.8523C47.4517 23.1719 47.8224 23.4105 48.2699 23.5682C48.7216 23.7216 49.2074 23.7983 49.7273 23.7983C50.3324 23.7983 50.8757 23.7003 51.3572 23.5043C51.8388 23.304 52.2202 23.027 52.5014 22.6733C52.7827 22.3153 52.9233 21.8977 52.9233 21.4205C52.9233 20.9858 52.8018 20.6321 52.5589 20.3594C52.3161 20.0866 51.9964 19.8651 51.6001 19.6946C51.2038 19.5241 50.7756 19.375 50.3153 19.2472L48.7045 18.7869C47.6818 18.4929 46.8722 18.0732 46.2756 17.5277C45.679 16.9822 45.3807 16.2685 45.3807 15.3864C45.3807 14.6534 45.5788 14.0142 45.9751 13.4688C46.3757 12.919 46.9126 12.4929 47.5859 12.1903C48.2635 11.8835 49.0199 11.7301 49.8551 11.7301C50.6989 11.7301 51.4489 11.8814 52.1051 12.1839C52.7614 12.4822 53.2813 12.8913 53.6648 13.4112C54.0526 13.9311 54.2571 14.5213 54.2784 15.1818H52.7443ZM59.7484 25.2301C59.1262 25.2301 58.5616 25.1129 58.0545 24.8786C57.5474 24.6399 57.1447 24.2969 56.8464 23.8494C56.5481 23.3977 56.399 22.8523 56.399 22.2131C56.399 21.6506 56.5098 21.1946 56.7314 20.8452C56.9529 20.4915 57.2491 20.2145 57.6199 20.0142C57.9906 19.8139 58.3997 19.6648 58.8471 19.5668C59.2988 19.4645 59.7527 19.3835 60.2086 19.3239C60.8052 19.2472 61.2889 19.1896 61.6596 19.1513C62.0346 19.1087 62.3074 19.0384 62.4778 18.9403C62.6525 18.8423 62.7399 18.6719 62.7399 18.429V18.3778C62.7399 17.7472 62.5673 17.2571 62.2221 16.9077C61.8812 16.5582 61.3635 16.3835 60.6689 16.3835C59.9487 16.3835 59.3841 16.5412 58.975 16.8565C58.5659 17.1719 58.2782 17.5085 58.112 17.8665L56.6802 17.3551C56.9359 16.7585 57.2768 16.294 57.7029 15.9616C58.1333 15.625 58.6021 15.3906 59.1092 15.2585C59.6206 15.1222 60.1234 15.054 60.6177 15.054C60.9331 15.054 61.2953 15.0923 61.7044 15.169C62.1177 15.2415 62.5162 15.3928 62.8997 15.6229C63.2875 15.853 63.6092 16.2003 63.8649 16.6648C64.1206 17.1293 64.2484 17.7514 64.2484 18.5312V25H62.7399V23.6705H62.6632C62.5609 23.8835 62.3904 24.1115 62.1518 24.3544C61.9132 24.5973 61.5957 24.804 61.1994 24.9744C60.8031 25.1449 60.3194 25.2301 59.7484 25.2301ZM59.9785 23.875C60.5751 23.875 61.0779 23.7578 61.487 23.5234C61.9004 23.2891 62.2115 22.9865 62.4203 22.6158C62.6333 22.245 62.7399 21.8551 62.7399 21.446V20.0653C62.676 20.142 62.5353 20.2124 62.318 20.2763C62.1049 20.3359 61.8578 20.3892 61.5765 20.4361C61.2995 20.4787 61.0289 20.517 60.7647 20.5511C60.5048 20.581 60.2939 20.6065 60.1319 20.6278C59.7399 20.679 59.3734 20.7621 59.0325 20.8771C58.6958 20.9879 58.4231 21.1562 58.2143 21.3821C58.0098 21.6037 57.9075 21.9062 57.9075 22.2898C57.9075 22.8139 58.1014 23.2102 58.4892 23.4787C58.8812 23.7429 59.3777 23.875 59.9785 23.875ZM74.6786 15.1818L71.0479 25H69.5138L65.8832 15.1818H67.5195L70.2298 23.0057H70.332L73.0423 15.1818H74.6786ZM80.4347 25.2045C79.4886 25.2045 78.6726 24.9957 77.9865 24.5781C77.3047 24.1562 76.7784 23.5682 76.4077 22.8139C76.0412 22.0554 75.858 21.1733 75.858 20.1676C75.858 19.1619 76.0412 18.2756 76.4077 17.5085C76.7784 16.7372 77.294 16.1364 77.9545 15.706C78.6193 15.2713 79.3949 15.054 80.2812 15.054C80.7926 15.054 81.2976 15.1392 81.7962 15.3097C82.2947 15.4801 82.7486 15.7571 83.1577 16.1406C83.5668 16.5199 83.8928 17.0227 84.1357 17.6491C84.3786 18.2756 84.5 19.0469 84.5 19.9631V20.6023H76.9318V19.2983H82.9659C82.9659 18.7443 82.8551 18.25 82.6335 17.8153C82.4162 17.3807 82.1051 17.0376 81.7003 16.7862C81.2997 16.5348 80.8267 16.4091 80.2812 16.4091C79.6804 16.4091 79.1605 16.5582 78.7216 16.8565C78.2869 17.1506 77.9524 17.5341 77.718 18.0071C77.4837 18.4801 77.3665 18.9872 77.3665 19.5284V20.3977C77.3665 21.1392 77.4943 21.7678 77.75 22.2834C78.0099 22.7947 78.37 23.1847 78.8303 23.4531C79.2905 23.7173 79.8253 23.8494 80.4347 23.8494C80.831 23.8494 81.1889 23.794 81.5085 23.6832C81.8324 23.5682 82.1115 23.3977 82.3459 23.1719C82.5803 22.9418 82.7614 22.6562 82.8892 22.3153L84.3466 22.7244C84.1932 23.2188 83.9354 23.6534 83.5732 24.0284C83.2109 24.3991 82.7635 24.6889 82.2308 24.8977C81.6982 25.1023 81.0994 25.2045 80.4347 25.2045Z" fill="#121212"/>
<circle cx="18" cy="18" r="18" fill="#FAFAFB"/>
<g clip-path="url(#clip0_456_4896)">
<path d="M23.8333 18V23.8333H12.1667V18H10.5V23.8333C10.5 24.75 11.25 25.5 12.1667 25.5H23.8333C24.75 25.5 25.5 24.75 25.5 23.8333V18H23.8333ZM18.8333 18.5583L20.9917 16.4083L22.1667 17.5833L18 21.75L13.8333 17.5833L15.0083 16.4083L17.1667 18.5583V10.5H18.8333V18.5583Z" fill="#121212"/>
</g>
<defs>
<clipPath id="clip0_456_4896">
<rect width="20" height="20" fill="white" transform="translate(8 8)"/>
</clipPath>
</defs>
</svg>
