<svg width="32" height="32" viewBox="0 0 32 32" fill="none" xmlns="http://www.w3.org/2000/svg">
<path fill-rule="evenodd" clip-rule="evenodd" d="M18.1328 10.8945C17.5808 10.8945 17.1328 10.4465 17.1328 9.8945V6.6665C17.1328 6.1145 17.5808 5.6665 18.1328 5.6665C18.6848 5.6665 19.1328 6.1145 19.1328 6.6665V9.8945C19.1328 10.4465 18.6848 10.8945 18.1328 10.8945Z" fill="#121212"/>
<path fill-rule="evenodd" clip-rule="evenodd" d="M18.1328 28.3789C17.5808 28.3789 17.1328 27.9309 17.1328 27.3789V24.6815C17.1328 24.1282 17.5808 23.6815 18.1328 23.6815C18.6848 23.6815 19.1328 24.1282 19.1328 24.6815V27.3789C19.1328 27.9309 18.6848 28.3789 18.1328 28.3789Z" fill="#121212"/>
<path fill-rule="evenodd" clip-rule="evenodd" d="M18.1328 21.1002C17.5808 21.1002 17.1328 20.6522 17.1328 20.1002V13.6722C17.1328 13.1202 17.5808 12.6722 18.1328 12.6722C18.6848 12.6722 19.1328 13.1202 19.1328 13.6722V20.1002C19.1328 20.6522 18.6848 21.1002 18.1328 21.1002Z" fill="#121212"/>
<mask id="mask0_1909_1523" style="mask-type:luminance" maskUnits="userSpaceOnUse" x="1" y="5" width="30" height="24">
<path fill-rule="evenodd" clip-rule="evenodd" d="M1.33398 5.33325H30.0006V28.6662H1.33398V5.33325Z" fill="white"/>
</mask>
<g mask="url(#mask0_1909_1523)">
<path fill-rule="evenodd" clip-rule="evenodd" d="M3.33398 20.7382V23.3235C3.33398 25.1662 4.85798 26.6662 6.73132 26.6662H24.6033C26.4766 26.6662 28.0007 25.1662 28.0007 23.3235V20.7382C26.3326 20.2995 25.098 18.7902 25.098 17.0008C25.098 15.2102 26.3313 13.7022 28.0007 13.2635L27.9993 10.6755C27.9993 8.83282 26.4753 7.33282 24.602 7.33282H6.73265C4.85932 7.33282 3.33532 8.83282 3.33532 10.6755L3.33398 13.3662C5.02332 13.7808 6.23665 15.2288 6.23665 17.0008C6.23665 18.7902 5.00198 20.2995 3.33398 20.7382ZM24.6033 28.6662H6.73132C3.75532 28.6662 1.33398 26.2688 1.33398 23.3235V19.8675C1.33398 19.3155 1.78198 18.8675 2.33398 18.8675C3.38332 18.8675 4.23665 18.0302 4.23665 17.0008C4.23665 16.0008 3.41798 15.2462 2.33398 15.2462C2.06865 15.2462 1.81398 15.1408 1.62732 14.9528C1.43932 14.7662 1.33398 14.5102 1.33398 14.2462L1.33532 10.6755C1.33532 7.73016 3.75665 5.33282 6.73265 5.33282H24.602C27.578 5.33282 29.9993 7.73016 29.9993 10.6755L30.0006 14.1342C30.0006 14.3982 29.8953 14.6542 29.7073 14.8408C29.5207 15.0288 29.266 15.1342 29.0006 15.1342C27.9513 15.1342 27.098 15.9715 27.098 17.0008C27.098 18.0302 27.9513 18.8675 29.0006 18.8675C29.5526 18.8675 30.0006 19.3155 30.0006 19.8675V23.3235C30.0006 26.2688 27.5793 28.6662 24.6033 28.6662Z" fill="#121212"/>
</g>
</svg>
