<svg width="24" height="24" viewBox="0 0 24 24" fill="none" xmlns="http://www.w3.org/2000/svg">
<path fill-rule="evenodd" clip-rule="evenodd" d="M5.38659 13.5777L13.3671 5.75486C14.3938 4.74838 16.0592 4.74838 17.086 5.75486L18.1519 6.79974C19.1787 7.80622 19.1787 9.4387 18.1519 10.4452L10.14 18.2988C9.68182 18.7479 9.06069 18.9999 8.41236 18.9999H5.13119C4.82639 18.9999 4.58144 18.7538 4.58904 18.4551L4.67158 15.2097C4.68799 14.5963 4.94403 14.0115 5.38659 13.5777ZM17.3854 7.55152L16.3194 6.50664C15.7163 5.91537 14.7376 5.91537 14.1345 6.50664L13.5143 7.1145L16.7656 10.3009L17.3854 9.69334C17.9886 9.10207 17.9886 8.14279 17.3854 7.55152ZM6.15399 14.3294L12.7474 7.86631L15.9986 11.0527L9.37343 17.547L9.2853 17.6261C9.04189 17.826 8.73349 17.9367 8.4128 17.9367L5.68744 17.9363L5.75631 15.2368C5.76542 14.8962 5.90799 14.5706 6.15399 14.3294ZM19.4121 18.4684C19.4121 18.1748 19.1693 17.9368 18.8698 17.9368H13.2117L13.1381 17.9417C12.8734 17.9769 12.6694 18.1993 12.6694 18.4684C12.6694 18.762 12.9122 19 13.2117 19H18.8698L18.9434 18.9952C19.2081 18.96 19.4121 18.7376 19.4121 18.4684Z" fill="#8A69F6"/>
<path d="M13.3671 5.75486L13.192 5.57633L13.3671 5.75486ZM5.38659 13.5777L5.21159 13.3991H5.21159L5.38659 13.5777ZM17.086 5.75486L16.911 5.93339L16.911 5.93339L17.086 5.75486ZM18.1519 6.79974L18.3269 6.62121L18.1519 6.79974ZM18.1519 10.4452L18.3269 10.6237L18.1519 10.4452ZM10.14 18.2988L10.315 18.4774L10.14 18.2988ZM4.58904 18.4551L4.33912 18.4487L4.58904 18.4551ZM4.67158 15.2097L4.42166 15.203L4.42166 15.2033L4.67158 15.2097ZM16.3194 6.50664L16.4944 6.32811L16.4944 6.32811L16.3194 6.50664ZM17.3854 7.55152L17.5604 7.37299L17.3854 7.55152ZM14.1345 6.50664L14.3095 6.68517L14.1345 6.50664ZM13.5143 7.1145L13.3393 6.93597L13.1572 7.11452L13.3394 7.29305L13.5143 7.1145ZM16.7656 10.3009L16.5906 10.4794L16.7656 10.6509L16.9406 10.4794L16.7656 10.3009ZM17.3854 9.69334L17.5604 9.87187H17.5604L17.3854 9.69334ZM12.7474 7.86631L12.9224 7.68776L12.7474 7.51625L12.5724 7.68778L12.7474 7.86631ZM6.15399 14.3294L5.97899 14.1509H5.97899L6.15399 14.3294ZM15.9986 11.0527L16.1736 11.2312L16.3558 11.0526L16.1736 10.8741L15.9986 11.0527ZM9.37343 17.547L9.54059 17.7332L9.54844 17.7255L9.37343 17.547ZM9.2853 17.6261L9.44412 17.8195L9.45229 17.8122L9.2853 17.6261ZM8.4128 17.9367L8.41277 18.1867H8.4128V17.9367ZM5.68744 17.9363L5.43752 17.9299L5.43098 18.1863L5.68741 18.1863L5.68744 17.9363ZM5.75631 15.2368L5.5064 15.2301L5.50639 15.2304L5.75631 15.2368ZM13.2117 17.9368V17.6868H13.2035L13.1953 17.6874L13.2117 17.9368ZM13.1381 17.9417L13.1217 17.6922L13.1134 17.6928L13.1052 17.6938L13.1381 17.9417ZM18.8698 19V19.25H18.878L18.8862 19.2495L18.8698 19ZM18.9434 18.9952L18.9598 19.2446L18.9681 19.2441L18.9763 19.243L18.9434 18.9952ZM13.192 5.57633L5.21159 13.3991L5.5616 13.7562L13.5421 5.93339L13.192 5.57633ZM17.261 5.57633C16.137 4.47456 14.316 4.47456 13.192 5.57633L13.5421 5.93339C14.4716 5.0222 15.9814 5.0222 16.911 5.93339L17.261 5.57633ZM18.3269 6.62121L17.261 5.57633L16.911 5.93339L17.9769 6.97827L18.3269 6.62121ZM18.3269 10.6237C19.4537 9.51921 19.4537 7.72571 18.3269 6.62121L17.9769 6.97827C18.9037 7.88673 18.9037 9.35818 17.9769 10.2666L18.3269 10.6237ZM10.315 18.4774L18.3269 10.6237L17.9769 10.2666L9.96495 18.1203L10.315 18.4774ZM8.41236 19.2499C9.12532 19.2499 9.80952 18.9728 10.315 18.4774L9.96495 18.1203C9.55412 18.523 8.99605 18.7499 8.41236 18.7499V19.2499ZM5.13119 19.2499H8.41236V18.7499H5.13119V19.2499ZM4.33912 18.4487C4.32783 18.8928 4.69073 19.2499 5.13119 19.2499V18.7499C4.96204 18.7499 4.83506 18.6147 4.83896 18.4614L4.33912 18.4487ZM4.42166 15.2033L4.33912 18.4487L4.83896 18.4614L4.92149 15.216L4.42166 15.2033ZM5.21159 13.3991C4.72318 13.8779 4.43983 14.5241 4.42166 15.203L4.92149 15.2164C4.93614 14.6684 5.16488 14.1451 5.5616 13.7562L5.21159 13.3991ZM16.1444 6.68517L17.2104 7.73005L17.5604 7.37299L16.4944 6.32811L16.1444 6.68517ZM14.3095 6.68517C14.8154 6.1892 15.6385 6.1892 16.1444 6.68517L16.4944 6.32811C15.794 5.64155 14.6598 5.64155 13.9594 6.32811L14.3095 6.68517ZM13.6894 7.29303L14.3095 6.68517L13.9594 6.32811L13.3393 6.93597L13.6894 7.29303ZM16.9406 10.1223L13.6893 6.93595L13.3394 7.29305L16.5906 10.4794L16.9406 10.1223ZM17.2104 9.5148L16.5906 10.1223L16.9406 10.4794L17.5604 9.87187L17.2104 9.5148ZM17.2104 7.73005C17.7136 8.2233 17.7136 9.02155 17.2104 9.5148L17.5604 9.87187C18.2636 9.18258 18.2636 8.06227 17.5604 7.37299L17.2104 7.73005ZM12.5724 7.68778L5.97899 14.1509L6.329 14.508L12.9224 8.04484L12.5724 7.68778ZM16.1736 10.8741L12.9224 7.68776L12.5724 8.04486L15.8237 11.2312L16.1736 10.8741ZM9.54844 17.7255L16.1736 11.2312L15.8236 10.8741L9.19843 17.3685L9.54844 17.7255ZM9.45229 17.8122L9.54043 17.733L9.20644 17.3609L9.11831 17.4401L9.45229 17.8122ZM8.4128 18.1867C8.79095 18.1867 9.15551 18.0562 9.44396 17.8193L9.12664 17.4329C8.92826 17.5958 8.67603 17.6867 8.4128 17.6867V18.1867ZM5.68741 18.1863L8.41277 18.1867L8.41284 17.6867L5.68748 17.6863L5.68741 18.1863ZM5.50639 15.2304L5.43752 17.9299L5.93736 17.9427L6.00623 15.2432L5.50639 15.2304ZM5.97899 14.1509C5.68717 14.437 5.51726 14.824 5.5064 15.2301L6.00622 15.2435C6.01358 14.9684 6.12882 14.7042 6.329 14.508L5.97899 14.1509ZM18.8698 18.1868C19.0359 18.1868 19.1621 18.3176 19.1621 18.4684H19.6621C19.6621 18.0321 19.3026 17.6868 18.8698 17.6868V18.1868ZM13.2117 18.1868H18.8698V17.6868H13.2117V18.1868ZM13.1546 18.1911L13.2282 18.1863L13.1953 17.6874L13.1217 17.6922L13.1546 18.1911ZM12.9194 18.4684C12.9194 18.3301 13.0251 18.2089 13.1711 18.1895L13.1052 17.6938C12.7217 17.7448 12.4194 18.0685 12.4194 18.4684H12.9194ZM13.2117 18.75C13.0456 18.75 12.9194 18.6193 12.9194 18.4684H12.4194C12.4194 18.9048 12.7789 19.25 13.2117 19.25V18.75ZM18.8698 18.75H13.2117V19.25H18.8698V18.75ZM18.9269 18.7457L18.8533 18.7506L18.8862 19.2495L18.9598 19.2446L18.9269 18.7457ZM19.1621 18.4684C19.1621 18.6068 19.0564 18.728 18.9104 18.7474L18.9763 19.243C19.3598 19.192 19.6621 18.8683 19.6621 18.4684H19.1621Z" fill="#8A69F6"/>
</svg>
