<svg width="132" height="60" viewBox="0 0 132 60" fill="none" xmlns="http://www.w3.org/2000/svg">
<g clip-path="url(#clip0_456_7629)">
<path d="M103.625 26.6627H109.363L106.494 19.7202L103.625 26.6627Z" fill="#ABABAB"/>
<path d="M115.481 3.26465C109.285 0.138933 102.193 -0.778036 95.3963 0.667746C88.5993 2.11353 82.5111 5.83399 78.1542 11.2043C82.4971 10.7802 86.8678 11.6705 90.6902 13.7579L88.039 19.2122C82.3751 16.2985 76.1951 16.58 75.4939 18.6486C74.7927 20.7173 77.5448 21.1956 80.728 21.4858C83.9112 21.7759 86.2499 22.01 88.4429 23.2748C90.6358 24.5395 91.9613 26.8003 91.9067 29.9181C91.8521 33.0359 89.8494 36.4774 84.2163 38.1469C78.5833 39.8164 72.3994 37.367 72.3994 37.367C73.643 42.2308 76.0972 46.7078 79.5373 50.3882C82.9774 54.0686 87.2936 56.8349 92.091 58.4341C96.8883 60.0332 102.014 60.414 106.998 59.5417C111.982 58.6694 116.666 56.5718 120.621 53.4409C124.576 50.3099 127.676 46.2457 129.637 41.62C131.598 36.9943 132.358 31.9549 131.846 26.963C131.335 21.9711 129.569 17.186 126.709 13.0457C123.85 8.90536 119.989 5.54202 115.48 3.26343L115.481 3.26465ZM114.179 38.4121L111.773 32.5625H101.214L98.8092 38.4121H91.9912L103.623 11.3133H109.515L121.147 38.4121H114.179Z" fill="#ABABAB"/>
<path d="M83.91 32.3363C85.1999 31.7832 85.6104 30.6199 85.2626 29.5283C85.1051 29.0344 84.6611 28.7122 83.7659 28.4599C82.6824 28.153 80.9379 27.9467 78.2411 27.6587C73.3166 27.1311 71.8469 25.3101 71.8469 25.3101C71.6003 26.8621 71.4768 28.431 71.4775 30.0022C71.4775 30.3214 71.4825 30.6395 71.4925 30.9564C78.0667 34.15 82.5553 32.9171 83.91 32.3363Z" fill="#ABABAB"/>
<path d="M3.77636 46.2067C2.01787 45.8333 1.60665 45.4142 1.60665 44.6671V44.6445C1.60665 43.9314 2.26792 43.3652 3.30832 43.3652C4.15674 43.3663 4.97605 43.672 5.6147 44.2257L6.14004 43.5351C5.35638 42.8791 4.35634 42.5325 3.3311 42.5615C1.81262 42.5615 0.704625 43.4783 0.704625 44.7224V44.7453C0.704625 46.0472 1.54958 46.6357 3.38817 47.032C5.06682 47.3828 5.46628 47.8017 5.46628 48.5374V48.5599C5.46628 49.341 4.75823 49.9073 3.68501 49.9073C2.5775 49.9073 1.77785 49.5336 0.944399 48.7865L0.384766 49.442C1.26634 50.2686 2.4374 50.7232 3.65072 50.71C5.23802 50.71 6.38006 49.8269 6.38006 48.4684V48.4458C6.37883 47.2369 5.55641 46.5918 3.77636 46.2067Z" fill="#ABABAB"/>
<path d="M9.83804 44.667C9.09432 44.6649 8.35995 44.8314 7.69111 45.1538L7.95391 45.8672C8.5109 45.591 9.12393 45.4439 9.74669 45.4369C10.8542 45.4369 11.5052 45.9803 11.5052 47.0331V47.2368C10.9156 47.0661 10.3038 46.9821 9.68962 46.9877C8.19368 46.9877 7.16699 47.6433 7.16699 48.8784V48.901C7.16699 50.1009 8.2745 50.7237 9.37123 50.7237C9.78234 50.7361 10.1905 50.6512 10.5619 50.476C10.9332 50.3007 11.2571 50.0402 11.5067 49.7161V50.5992H12.3516V47.0217C12.3516 46.2746 12.1461 45.7086 11.7464 45.3124C11.311 44.8821 10.6715 44.667 9.83804 44.667ZM11.5167 48.4482C11.5167 49.3764 10.6259 50.0332 9.5412 50.0332C8.7418 50.0332 8.05652 49.603 8.05652 48.8678V48.8452C8.05652 48.1092 8.67322 47.6338 9.78097 47.6338C10.3686 47.6343 10.9531 47.7182 11.5167 47.8829V48.4482Z" fill="#ABABAB"/>
<path d="M17.9572 48.0973C17.9572 49.1952 17.192 49.9312 16.1871 49.9312C15.148 49.9312 14.5543 49.2513 14.5543 48.165V44.7463H13.6748V48.3801C13.6748 49.7726 14.5075 50.7237 15.9359 50.7237C16.3459 50.7339 16.751 50.6328 17.1073 50.4312C17.4636 50.2296 17.7575 49.9353 17.9572 49.5801V50.5998H18.8249V44.7463H17.9572V48.0973Z" fill="#ABABAB"/>
<path d="M25.0825 45.8673C24.8434 45.4863 24.5103 45.1721 24.1147 44.9542C23.7191 44.7363 23.274 44.622 22.8214 44.6219C21.4053 44.6219 20.001 45.7539 20.001 47.6672V47.6897C20.001 49.6142 21.4053 50.7248 22.8214 50.7248C23.9064 50.7248 24.6027 50.1248 25.0825 49.4229V50.6002H25.9617V42.335H25.0825V45.8673ZM25.1168 47.6786C25.1274 47.9664 25.0805 48.2535 24.9787 48.5234C24.877 48.7932 24.7225 49.0404 24.524 49.2508C24.3255 49.4612 24.0871 49.6306 23.8223 49.7493C23.5576 49.868 23.2718 49.9337 22.9814 49.9425C21.8623 49.9425 20.903 49.0596 20.903 47.6786V47.6557C20.903 46.2407 21.8393 45.403 22.9814 45.403C23.2712 45.4105 23.5567 45.4749 23.8213 45.5924C24.086 45.71 24.3245 45.8783 24.523 46.0878C24.7216 46.2973 24.8763 46.5437 24.9782 46.8129C25.0801 47.082 25.1272 47.3685 25.1168 47.6557V47.6786Z" fill="#ABABAB"/>
<path d="M28.4961 42.5049H27.4912V43.4671H28.4961V42.5049Z" fill="#ABABAB"/>
<path d="M28.4271 44.7463H27.5479V50.5991H28.4271V44.7463Z" fill="#ABABAB"/>
<path d="M36.0889 42.6179L32.4463 50.5991H33.3713L34.3192 48.5047H38.6698L39.6062 50.5991H40.5768L36.9341 42.6179H36.0889ZM34.6731 47.701L36.5001 43.6595L38.3157 47.701H34.6731Z" fill="#ABABAB"/>
<path d="M42.4261 46.2746V44.7464H41.5469V50.5991H42.4261V48.267C42.4261 46.5009 43.4768 45.584 44.767 45.584H44.8356V44.6444C43.7166 44.5992 42.8601 45.3009 42.4261 46.2746Z" fill="#ABABAB"/>
<path d="M47.6554 44.667C46.9118 44.6648 46.1775 44.8313 45.5087 45.1538L45.7713 45.8672C46.3284 45.591 46.9415 45.4438 47.5643 45.4369C48.6718 45.4369 49.3228 45.9803 49.3228 47.0331V47.2368C48.7331 47.0661 48.1213 46.9821 47.507 46.9877C46.0111 46.9877 44.9844 47.6433 44.9844 48.8784V48.901C44.9844 50.1009 46.0919 50.7237 47.1886 50.7237C47.5997 50.7361 48.0079 50.6511 48.3792 50.4759C48.7506 50.3007 49.0745 50.0402 49.324 49.7161V50.5992H50.169V47.0217C50.169 46.2746 49.9635 45.7086 49.5638 45.3124C49.1286 44.8821 48.4891 44.667 47.6554 44.667ZM49.3341 48.4482C49.3341 49.3764 48.4436 50.0332 47.3586 50.0332C46.5594 50.0332 45.8742 49.603 45.8742 48.8678V48.8452C45.8742 48.1092 46.4909 47.6338 47.5984 47.6338C48.186 47.6343 48.7705 47.7182 49.3341 47.8829V48.4482Z" fill="#ABABAB"/>
<path d="M54.7241 44.6219C53.6391 44.6219 52.9425 45.2219 52.463 45.9238V42.335H51.584V50.5992H52.4632V49.4785C52.7024 49.8594 53.0355 50.1736 53.4311 50.3915C53.8267 50.6094 54.2717 50.7237 54.7243 50.7238C56.1514 50.7238 57.5447 49.5916 57.5447 47.6786V47.6557C57.5445 45.7313 56.1394 44.6219 54.7241 44.6219ZM56.6425 47.6897C56.6425 49.1048 55.7059 49.9425 54.5639 49.9425C54.2732 49.9346 53.9869 49.8696 53.7218 49.7512C53.4566 49.6328 53.2178 49.4634 53.0191 49.2528C52.8205 49.0422 52.666 48.7946 52.5647 48.5244C52.4633 48.2541 52.4171 47.9666 52.4287 47.6786V47.6557C52.4192 47.3687 52.467 47.0827 52.5693 46.814C52.6715 46.5453 52.8263 46.2993 53.0246 46.09C53.223 45.8807 53.461 45.7123 53.7252 45.5944C53.9893 45.4765 54.2743 45.4115 54.5639 45.403C55.6831 45.403 56.6425 46.2861 56.6425 47.6672V47.6897Z" fill="#ABABAB"/>
<path d="M59.7363 42.5049H58.7314V43.4671H59.7363V42.5049Z" fill="#ABABAB"/>
<path d="M59.6673 44.7463H58.7881V50.5991H59.6673V44.7463Z" fill="#ABABAB"/>
<path d="M63.4818 44.667C62.7381 44.6648 62.0037 44.8314 61.3349 45.1538L61.5975 45.8672C62.1545 45.591 62.7675 45.4439 63.3902 45.4369C64.498 45.4369 65.1487 45.9803 65.1487 47.0331V47.2368C64.5591 47.0661 63.9474 46.9821 63.3332 46.9877C61.8372 46.9877 60.8105 47.6433 60.8105 48.8784V48.901C60.8105 50.1009 61.9183 50.7237 63.0148 50.7237C63.4259 50.7361 63.8341 50.6512 64.2054 50.476C64.5768 50.3007 64.9007 50.0402 65.1502 49.7161V50.5992H65.9954V47.0217C65.9954 46.2746 65.7897 45.7086 65.3902 45.3124C64.9548 44.8821 64.3153 44.667 63.4818 44.667ZM65.1603 48.4482C65.1603 49.3764 64.2695 50.0332 63.1848 50.0332C62.3854 50.0332 61.7001 49.603 61.7001 48.8678V48.8452C61.7001 48.1092 62.3168 47.6338 63.4245 47.6338C64.0121 47.6343 64.5966 47.7182 65.1603 47.8829V48.4482Z" fill="#ABABAB"/>
<path d="M13.1782 11.1555C5.66515 11.1555 0 17.1304 0 25.0536V25.1507C0 33.1753 5.81258 38.9997 13.8206 38.9997C18.3314 38.9997 22.0338 37.3163 24.8247 33.9965L25.0855 33.6864L20.9775 30.0728L20.6976 30.3435C18.5465 32.4253 16.5193 33.3135 13.9198 33.3135C10.2847 33.3135 7.63549 31.1282 6.90393 27.577H25.9765L26.0201 27.0584C26.0659 26.5186 26.109 26.0085 26.109 25.4938C26.109 18.3571 22.1107 11.1555 13.1782 11.1555ZM6.84466 22.8234C7.50593 19.1726 9.93206 16.8415 13.1282 16.8415C17.0145 16.8415 18.833 19.8505 19.2788 22.8234H6.84466Z" fill="#ABABAB"/>
<path d="M45.9106 38.598L56.8828 11.4995H49.7313L43.1462 29.0869L36.5612 11.4995H29.2588L40.231 38.598H45.9106Z" fill="#ABABAB"/>
<path d="M66.0398 11.4995H59.4121V38.412H66.0398V11.4995Z" fill="#ABABAB"/>
<path d="M31.2505 38.7493C33.0878 38.7493 34.5772 37.2727 34.5772 35.4513C34.5772 33.6299 33.0878 32.1533 31.2505 32.1533C29.4132 32.1533 27.9238 33.6299 27.9238 35.4513C27.9238 37.2727 29.4132 38.7493 31.2505 38.7493Z" fill="#ABABAB"/>
</g>
<defs>
<clipPath id="clip0_456_7629">
<rect width="132" height="60" fill="white"/>
</clipPath>
</defs>
</svg>
