<svg width="20" height="20" viewBox="0 0 20 20" fill="none" xmlns="http://www.w3.org/2000/svg">
<path d="M13.7504 5H11.2504C10.7902 5 10.4171 5.3731 10.4171 5.83333V8.33333H13.7504C13.8452 8.33123 13.9351 8.37533 13.9914 8.45156C14.0478 8.5278 14.0636 8.62667 14.0337 8.71667L13.4171 10.55C13.3602 10.7183 13.203 10.832 13.0254 10.8333H10.4171V17.0833C10.4171 17.3135 10.2305 17.5 10.0004 17.5H7.91707C7.68695 17.5 7.50041 17.3135 7.50041 17.0833V10.8333H6.25041C6.02029 10.8333 5.83374 10.6468 5.83374 10.4167V8.75C5.83374 8.51988 6.02029 8.33333 6.25041 8.33333H7.50041V5.83333C7.50041 3.99238 8.99279 2.5 10.8337 2.5H13.7504C13.9805 2.5 14.1671 2.68655 14.1671 2.91667V4.58333C14.1671 4.81345 13.9805 5 13.7504 5Z" fill="#121212"/>
</svg>
