<svg width="38" height="38" viewBox="0 0 38 38" fill="none" xmlns="http://www.w3.org/2000/svg">
<rect x="0.5" y="0.5" width="37" height="37" rx="18.5" fill="white" stroke="#F1EDFE"/>
<path fill-rule="evenodd" clip-rule="evenodd" d="M17.5854 24.278L17.2567 24.1126C17.1005 24.0346 17.0004 23.8662 17 23.6806V23.3296C17.0004 23.144 17.1005 22.9755 17.2567 22.8976L17.5854 22.7322C17.8204 22.6127 18.077 22.5505 18.3368 22.5499H21.0416L23.5805 18.4018C23.6172 18.356 23.657 18.3131 23.6995 18.2736C23.861 18.0943 24.0844 17.9953 24.3162 18.0002H24.4227C24.4795 17.9979 24.5344 18.0226 24.5729 18.0677C24.6254 18.1242 24.6467 18.206 24.6293 18.2837L23.2862 22.5533L25.6843 22.7625L27.1557 20.886C27.2363 20.8014 27.3438 20.7532 27.4562 20.7509H27.788C27.8566 20.7511 27.9209 20.787 27.9607 20.8473C28.0004 20.9075 28.0107 20.9848 27.9884 21.0547L27.2308 23.5051L27.9884 25.9555C28.0107 26.0254 28.0004 26.1026 27.9607 26.1629C27.9209 26.2231 27.8566 26.259 27.788 26.2592H27.4562C27.3438 26.257 27.2363 26.2087 27.1557 26.1242L25.6655 24.2206L23.2862 24.4569L24.6387 28.7164C24.6561 28.794 24.6347 28.8759 24.5823 28.9324C24.5438 28.9774 24.4889 29.0021 24.432 28.9999H24.3256C24.099 29.0028 23.881 28.9066 23.7214 28.7332C23.6789 28.6937 23.6391 28.6508 23.6024 28.605L21.0416 24.4603H18.3368C18.077 24.4597 17.8204 24.3974 17.5854 24.278Z" fill="#5137A6"/>
<path fill-rule="evenodd" clip-rule="evenodd" d="M20.4146 14.278L20.7433 14.1126C20.8995 14.0346 20.9996 13.8662 21 13.6806V13.3296C20.9996 13.144 20.8995 12.9755 20.7433 12.8976L20.4146 12.7322C20.1796 12.6127 19.923 12.5505 19.6632 12.5499H16.9584L14.4195 8.40183C14.3828 8.35598 14.343 8.31311 14.3005 8.27357C14.139 8.09426 13.9156 7.99525 13.6838 8.00018H13.5773C13.5205 7.99795 13.4656 8.02261 13.4271 8.06769C13.3746 8.12417 13.3533 8.20602 13.3707 8.2837L14.7138 12.5533L12.3157 12.7625L10.8443 10.886C10.7637 10.8014 10.6562 10.7532 10.5438 10.7509H10.212C10.1434 10.7511 10.0791 10.787 10.0393 10.8473C9.99958 10.9075 9.98925 10.9848 10.0116 11.0547L10.7692 13.5051L10.0116 15.9555C9.98925 16.0254 9.99958 16.1026 10.0393 16.1629C10.0791 16.2231 10.1434 16.259 10.212 16.2592H10.5438C10.6562 16.257 10.7637 16.2087 10.8443 16.1242L12.3345 14.2206L14.7138 14.4569L13.3613 18.7164C13.3439 18.794 13.3653 18.8759 13.4177 18.9324C13.4562 18.9774 13.5111 19.0021 13.568 18.9999H13.6744C13.901 19.0028 14.119 18.9066 14.2786 18.7332C14.3211 18.6937 14.3609 18.6508 14.3976 18.605L16.9584 14.4603H19.6632C19.923 14.4597 20.1796 14.3974 20.4146 14.278Z" fill="#5137A6"/>
</svg>
