<svg width="33" height="33" viewBox="0 0 33 33" fill="none" xmlns="http://www.w3.org/2000/svg">
<g id="Group">
<g id="Group_2">
<path id="Vector" d="M22.9179 22.315C23.8972 22.315 24.6912 21.521 24.6912 20.5416C24.6912 19.5623 23.8972 18.7683 22.9179 18.7683C21.9385 18.7683 21.1445 19.5623 21.1445 20.5416C21.1445 21.521 21.9385 22.315 22.9179 22.315Z" fill="#18202F"/>
<path id="Vector_2" fill-rule="evenodd" clip-rule="evenodd" d="M22.9158 23.7083C21.76 23.7083 19.4483 24.2783 19.3691 25.4183C20.1608 26.5424 21.4591 27.2708 22.9158 27.2708C24.3725 27.2708 25.6708 26.5424 26.4625 25.4183C26.3833 24.2783 24.0716 23.7083 22.9158 23.7083Z" fill="#18202F"/>
<path id="Vector_3" fill-rule="evenodd" clip-rule="evenodd" d="M24.5 13.5592V5.9275L12.625 0.75L0.75 5.9275V13.7017C0.75 20.89 5.81667 27.6192 12.625 29.25C13.4958 29.0442 14.335 28.7433 15.1583 28.3792C16.8683 30.8175 19.7025 32.4167 22.9167 32.4167C28.1575 32.4167 32.4167 28.1575 32.4167 22.9167C32.4167 18.2142 28.9967 14.3192 24.5 13.5592ZM13.4167 22.9167C13.4167 23.8033 13.5433 24.6742 13.7808 25.4817C13.4008 25.6558 13.0208 25.83 12.625 25.9567C7.60583 24.3733 3.91667 19.2433 3.91667 13.7017V8.00167L12.625 4.20167L21.3333 8.00167V13.5592C16.8367 14.3192 13.4167 18.2142 13.4167 22.9167ZM22.9167 29.25C19.4175 29.25 16.5833 26.4158 16.5833 22.9167C16.5833 19.4175 19.4175 16.5833 22.9167 16.5833C26.4158 16.5833 29.25 19.4175 29.25 22.9167C29.25 26.4158 26.4158 29.25 22.9167 29.25Z" fill="#18202F"/>
</g>
</g>
</svg>
