<svg width="98" height="97" viewBox="0 0 98 97" fill="none" xmlns="http://www.w3.org/2000/svg">
<path fill-rule="evenodd" clip-rule="evenodd" d="M85.8398 63.1545C76.8151 73.8016 63.0323 80.8896 48.4827 80.305C33.9331 79.7193 21.4924 74.6931 11.9741 62.8731L14.0966 61.4674C23.9036 70.2963 34.859 73.416 48.3411 73.416C61.8231 73.416 73.252 70.2389 84.1421 61.4674L85.8398 63.1545ZM27.4004 35.1702C27.4004 30.5909 24.5107 28.2035 20.8 28.2035C18.0885 28.2035 15.9474 29.7304 15.3052 31.4519H15.2339V21.4727H10.2383V49.5716H15.2339V37.6355C15.2339 34.4659 16.9467 32.8222 19.1585 32.8222C22.334 32.8222 22.4058 35.4052 22.4058 36.9316V49.5716H27.4004V35.1702ZM43.2068 43.4664C42.8142 44.9534 41.3866 45.7371 39.9958 45.7371C35.9637 45.7371 35.6785 42.2148 35.5359 40.6489H48.5585V39.6707C48.5585 30.1614 43.3851 28.204 39.6387 28.204C31.325 28.204 30.5402 36.2268 30.5402 38.7314C30.5402 47.3024 34.6436 50.1263 39.9958 50.1263C43.242 50.1263 47.025 48.4757 48.3446 43.4669H43.2068V43.4664ZM35.6785 37.0872C35.9637 34.3481 37.2125 32.7045 39.5674 32.7045C41.1727 32.7045 43.135 33.7221 43.4207 37.0872H35.6785ZM57.0143 21.4727H52.0196V49.5716H57.0143V21.4727ZM66.9343 21.4727H61.9386V49.5716H66.9343V21.4727ZM90.0185 39.1619C90.0185 31.6484 85.416 28.204 80.3144 28.204C75.2118 28.204 70.6093 31.6484 70.6093 39.1619C70.6093 46.6764 75.2118 50.1258 80.3144 50.1258C85.416 50.1258 90.0185 46.6764 90.0185 39.1619ZM84.8812 39.1619C84.8812 41.8227 84.1672 45.5016 80.3139 45.5016C76.4606 45.5016 75.7466 41.8227 75.7466 39.1619C75.7466 36.5011 76.4606 32.8222 80.3139 32.8222C84.1672 32.8222 84.8812 36.5006 84.8812 39.1619Z" fill="#C3C5C8"/>
</svg>
