<svg width="142" height="43" viewBox="0 0 142 43" fill="none" xmlns="http://www.w3.org/2000/svg">
<g clip-path="url(#clip0_1099_15010)">
<path d="M52.8362 10.545V22.4827H40.9486V12.0865C40.9486 11.2321 40.2539 10.5391 39.3975 10.5391H35.373V39.1166C35.373 39.971 36.0677 40.6641 36.9241 40.6641H40.9486V27.3343H52.8422V39.1107C52.8302 39.9651 53.5129 40.6701 54.3693 40.682H54.3933H58.4177V12.0865C58.4177 11.2321 57.723 10.5391 56.8666 10.5391H52.8362V10.545ZM76.4438 18.0136V32.3352C76.4557 33.6377 75.773 34.8506 74.6471 35.5198C71.4971 37.3361 68.2332 35.0597 68.2332 32.0723V19.561C68.2332 18.7066 67.5385 18.0136 66.6821 18.0136H62.6577V32.5862C62.6697 37.2824 66.4785 41.0823 71.1857 41.1062H73.4734C78.1865 41.0943 82.0073 37.2824 82.0193 32.5802V19.561C82.0193 18.7066 81.3246 18.0136 80.4682 18.0136H76.4438Z" fill="#C3C5C8"/>
<path d="M137.332 40.6827H141.357V20.3922C141.357 19.5378 140.662 18.8447 139.806 18.8447H135.781V39.1233C135.775 39.9777 136.464 40.6767 137.32 40.6827H137.332Z" fill="#C3C5C8"/>
<path d="M141.444 14.7862C142.101 13.2039 141.347 11.3897 139.761 10.7342C138.175 10.0787 136.356 10.83 135.699 12.4123C135.042 13.9946 135.796 15.8088 137.382 16.4643C138.968 17.1198 140.787 16.3685 141.444 14.7862Z" fill="#C3C5C8"/>
<path d="M96.4056 18.0029C90.5663 18.0029 85.7871 22.1674 85.7871 27.9928V31.1416C85.7871 36.967 90.5663 41.1076 96.4056 41.1076C102.245 41.1076 107.024 36.967 107.024 31.1416V27.9928C107.03 22.1674 102.251 18.0029 96.4056 18.0029ZM101.424 31.518C101.424 34.2724 99.1665 36.1066 96.3996 36.1066C93.6327 36.1066 91.3808 34.2724 91.3808 31.518V27.5865C91.3808 24.8322 93.6387 22.9979 96.3996 22.9979C99.1605 22.9979 101.424 24.8322 101.424 27.5865V31.518Z" fill="#C3C5C8"/>
<path d="M121.408 18.002C119.659 17.9901 117.934 18.3844 116.359 19.1432V12.1168C116.359 11.2624 115.664 10.5693 114.808 10.5693H110.783V31.1406C110.783 36.9661 115.562 41.1066 121.402 41.1066C127.241 41.1066 132.02 36.9661 132.02 31.1406V27.9919C132.026 22.1665 127.259 18.002 121.408 18.002ZM126.432 31.5171C126.432 34.2714 124.175 36.1057 121.408 36.1057C118.647 36.1057 116.389 34.2714 116.389 31.5171V27.5856C116.389 24.8312 118.647 22.997 121.408 22.997C124.169 22.997 126.432 24.8312 126.432 27.5856V31.5171Z" fill="#C3C5C8"/>
<path d="M18.5216 13.0144C18.5216 6.94401 15.5571 1.71604 13.2992 0.0191935C13.2992 0.0191935 13.1256 -0.0764036 13.1435 0.168564C12.9579 11.8971 6.9509 15.0757 3.65096 19.3537C-3.96703 29.2361 3.11196 40.0684 10.3347 42.07C14.3593 43.1932 9.4004 40.0863 8.75958 33.532C7.97502 25.6213 18.5216 19.5748 18.5216 13.0144Z" fill="#C3C5C8"/>
<path d="M21.9821 17.0098C21.9342 16.9799 21.8684 16.956 21.8264 17.0337C21.7007 18.5095 20.1914 21.6642 18.275 24.5679C11.7769 34.4025 15.4781 39.1465 17.5623 41.6978C18.772 43.1735 17.5623 41.6978 20.5807 40.1861C24.3119 37.9276 26.7314 34.0201 27.0908 29.6824C27.6837 22.6918 23.4794 18.2884 21.9821 17.0098Z" fill="#C3C5C8"/>
</g>
<defs>
<clipPath id="clip0_1099_15010">
<rect width="141.31" height="42.3077" fill="white" transform="translate(0.363281)"/>
</clipPath>
</defs>
</svg>
