<svg width="253" height="69" viewBox="0 0 253 69" fill="none" xmlns="http://www.w3.org/2000/svg">
<path d="M85.4688 60.1279V0H97.6808V60.1279H85.4688Z" fill="white"/>
<path d="M102.257 60.1279V0H114.469V60.1279H102.257Z" fill="white"/>
<path d="M15.4743 19.6688L25.9207 44.4874H11.9983L0 14.8474H8.21634C11.3864 14.8474 14.2468 16.7458 15.4743 19.6688Z" fill="#FF626A"/>
<path d="M25.5705 44.3292L42.722 0H28.8069L18.7881 27.6311L25.5705 44.3292Z" fill="white"/>
<path d="M70.6919 18.7475V22.5C67.6877 19.6359 62.7741 16.3884 55.7558 16.3884C39.2936 16.3884 27.1184 34.7268 38.5416 52.0811C39.3931 53.3749 49.7511 68.6538 70.6919 53.7877V60.161H81.0388V18.7475H70.6919ZM65.1259 48.1222C54.2408 56.0141 42.4341 48.4207 42.4341 38.0738C42.4341 30.72 48.3983 24.7559 55.7558 24.7559C66.1137 24.7559 73.7108 36.5809 65.7857 47.4624C65.6014 47.7167 65.3765 47.9379 65.1259 48.1222Z" fill="white"/>
<path d="M153.125 18.7475V22.5C150.12 19.6359 145.207 16.3884 138.188 16.3884C121.726 16.3884 109.551 34.7268 120.974 52.0811C121.826 53.3749 132.184 68.6538 153.125 53.7877V60.161H163.471V18.7475H153.125ZM147.555 48.1222C136.67 56.0141 124.863 48.4207 124.863 38.0738C124.863 30.72 130.827 24.7559 138.185 24.7559C148.543 24.7559 156.14 36.5809 148.215 47.4624C148.03 47.7167 147.805 47.9379 147.555 48.1222Z" fill="white"/>
<path d="M249.318 24.4906C247.788 22.3305 241.592 13.9373 229.962 13.9373C222.443 13.9373 215.763 17.5423 211.558 23.1157C212.011 23.6833 212.354 24.1588 212.59 24.4906C214.429 27.3326 215.66 30.6059 216.095 34.1261C217.441 27.5501 223.353 22.6328 230.375 22.8318C237.899 23.0456 244.003 29.242 244.113 36.7653C244.228 44.6757 237.847 51.1264 229.962 51.1264C223.121 51.1264 217.415 46.2755 216.095 39.8285C215.587 43.9533 213.987 47.7352 211.594 50.8868C215.804 56.4308 222.461 60.0137 229.962 60.0137C242.687 60.0137 253.001 49.6999 253.001 36.9755C253.001 32.3715 251.644 28.0882 249.318 24.4869V24.4906Z" fill="white"/>
<path d="M189.953 40.0937L184.674 36.6583C183.314 35.7736 181.567 35.7478 180.181 36.5882C177.121 38.4497 168.264 43.6434 168.264 43.6434C168.264 43.6434 169.366 47.8309 172.757 51.6865C172.764 51.7013 172.772 51.7087 172.772 51.7087L189.953 40.09V40.0937Z" fill="#FF626A"/>
<path d="M204.628 37.6907C204.477 40.9566 202.652 44.5505 200.614 46.8765L207.868 51.849C211.628 47.7759 213.467 43.0024 213.467 37.0198C213.467 32.449 212.122 28.1953 209.811 24.6197C208.292 22.4744 202.14 14.1438 190.591 14.1438C178.449 14.1438 168.648 22.5813 167.885 34.528H176.776C177.284 27.2295 183.16 22.9684 190.591 22.9684C198.575 22.9684 205.004 29.6255 204.628 37.6944V37.6907Z" fill="white"/>
<path d="M200.13 47.3519C197.69 50.0428 194.834 51.1265 190.985 51.3034C186.912 51.4877 183.204 49.9396 180.528 47.3335L173.159 52.295C177.284 57.0169 183.296 60.0469 189.997 60.1427C196.695 60.2386 203.142 56.8289 207.385 52.3245L200.123 47.3556L200.13 47.3519Z" fill="#FF626A"/>
<path d="M11.8759 44.2776L1.76855 68.1083H16.4835L19.2444 61.6097L11.8759 44.2776Z" fill="white"/>
</svg>
