<svg width="20" height="20" viewBox="0 0 20 20" fill="none" xmlns="http://www.w3.org/2000/svg">
<path fill-rule="evenodd" clip-rule="evenodd" d="M2.91626 4.16667C2.91626 3.24619 3.66245 2.5 4.58293 2.5C5.02495 2.5 5.44888 2.67559 5.76144 2.98816C6.074 3.30072 6.24959 3.72464 6.24959 4.16667C6.24959 5.08714 5.5034 5.83333 4.58293 5.83333C3.66245 5.83333 2.91626 5.08714 2.91626 4.16667ZM17.4992 11.1754C17.5279 9.3711 16.297 7.79004 14.5409 7.37535C13.364 7.12194 12.1372 7.45424 11.2492 8.26702V7.91702C11.2492 7.6869 11.0626 7.50035 10.8325 7.50035H8.74919C8.51907 7.50035 8.33252 7.6869 8.33252 7.91702V16.2504C8.33252 16.4805 8.51907 16.667 8.74919 16.667H10.8325C11.0626 16.667 11.2492 16.4805 11.2492 16.2504V11.5504C11.2286 10.7134 11.8119 9.98258 12.6325 9.81702C13.1211 9.73267 13.622 9.87027 13.9989 10.1924C14.3758 10.5146 14.5897 10.9879 14.5825 11.4837V16.2504C14.5825 16.4805 14.7691 16.667 14.9992 16.667H17.0825C17.3126 16.667 17.4992 16.4805 17.4992 16.2504V11.1754ZM6.24919 7.91667V16.25C6.24919 16.4801 6.06264 16.6667 5.83252 16.6667H3.74919C3.51907 16.6667 3.33252 16.4801 3.33252 16.25V7.91667C3.33252 7.68655 3.51907 7.5 3.74919 7.5H5.83252C6.06264 7.5 6.24919 7.68655 6.24919 7.91667Z" fill="#121212"/>
</svg>
