<svg width="38" height="38" viewBox="0 0 38 38" fill="none" xmlns="http://www.w3.org/2000/svg">
<g clip-path="url(#clip0_1099_15244)">
<path d="M11.0833 23.75H22.1667V26.9167H11.0833V23.75ZM11.0833 17.4167H26.9167V20.5834H11.0833V17.4167ZM11.0833 11.0834H26.9167V14.25H11.0833V11.0834ZM30.0833 4.75004H23.465C22.8 2.91337 21.0583 1.58337 19 1.58337C16.9417 1.58337 15.2 2.91337 14.535 4.75004H7.91667C7.695 4.75004 7.48917 4.76587 7.28333 4.81337C6.66583 4.94004 6.11167 5.25671 5.68417 5.68421C5.39917 5.96921 5.16167 6.31754 5.00333 6.69754C4.845 7.06171 4.75 7.47337 4.75 7.91671V30.0834C4.75 30.5109 4.845 30.9384 5.00333 31.3184C5.16167 31.6984 5.39917 32.0309 5.68417 32.3317C6.11167 32.7592 6.66583 33.0759 7.28333 33.2025C7.48917 33.2342 7.695 33.25 7.91667 33.25H30.0833C31.825 33.25 33.25 31.825 33.25 30.0834V7.91671C33.25 6.17504 31.825 4.75004 30.0833 4.75004ZM19 4.35421C19.6492 4.35421 20.1875 4.89254 20.1875 5.54171C20.1875 6.19087 19.6492 6.72921 19 6.72921C18.3508 6.72921 17.8125 6.19087 17.8125 5.54171C17.8125 4.89254 18.3508 4.35421 19 4.35421ZM30.0833 30.0834H7.91667V7.91671H30.0833V30.0834Z" fill="#18202F"/>
</g>
<defs>
<clipPath id="clip0_1099_15244">
<rect width="38" height="38" fill="white"/>
</clipPath>
</defs>
</svg>
