<svg width="138" height="37" viewBox="0 0 138 37" fill="none" xmlns="http://www.w3.org/2000/svg">
<path d="M46.4316 32.6646V0H53.0659V32.6646H46.4316Z" fill="white"/>
<path d="M55.5508 32.6646V0H62.185V32.6646H55.5508Z" fill="white"/>
<path d="M8.40645 10.6855L14.0815 24.1682H6.5181L0 8.06622H4.46355C6.18569 8.06622 7.73962 9.09751 8.40645 10.6855Z" fill="#FF626A"/>
<path d="M13.8916 24.0819L23.2092 0H15.6498L10.207 15.0107L13.8916 24.0819Z" fill="white"/>
<path d="M38.4031 10.1844V12.2229C36.7711 10.667 34.1018 8.90277 30.289 8.90277C21.3459 8.90277 14.7317 18.8652 20.9374 28.2929C21.4 28.9958 27.027 37.2961 38.4031 29.22V32.6823H44.0241V10.1844H38.4031ZM35.3793 26.1422C29.466 30.4295 23.052 26.3044 23.052 20.6834C23.052 16.6885 26.292 13.4484 30.289 13.4484C35.916 13.4484 40.0431 19.8724 35.7378 25.7838C35.6377 25.9219 35.5155 26.0421 35.3793 26.1422Z" fill="white"/>
<path d="M83.1863 10.1844V12.2229C81.5543 10.667 78.885 8.90277 75.0722 8.90277C66.1291 8.90277 59.5149 18.8652 65.7206 28.2929C66.1832 28.9958 71.8102 37.2961 83.1863 29.22V32.6823H88.8073V10.1844H83.1863ZM80.1605 26.1422C74.2472 30.4295 67.8332 26.3044 67.8332 20.6834C67.8332 16.6885 71.0732 13.4484 75.0702 13.4484C80.6972 13.4484 84.8243 19.8724 80.519 25.7838C80.4189 25.9219 80.2967 26.0421 80.1605 26.1422Z" fill="white"/>
<path d="M135.443 13.3043C134.612 12.1308 131.246 7.57117 124.928 7.57117C120.843 7.57117 117.215 9.5296 114.93 12.5574C115.176 12.8657 115.362 13.1241 115.49 13.3043C116.49 14.8482 117.158 16.6264 117.395 18.5388C118.126 14.9664 121.338 12.295 125.152 12.4032C129.239 12.5193 132.556 15.8855 132.616 19.9726C132.678 24.2699 129.211 27.7743 124.928 27.7743C121.211 27.7743 118.112 25.139 117.395 21.6367C117.118 23.8774 116.249 25.932 114.95 27.6441C117.237 30.6559 120.853 32.6023 124.928 32.6023C131.841 32.6023 137.444 26.9993 137.444 20.0867C137.444 17.5856 136.707 15.2587 135.443 13.3023V13.3043Z" fill="white"/>
<path d="M103.193 21.781L100.325 19.9147C99.5863 19.4341 98.6371 19.4201 97.8842 19.8766C96.2221 20.8879 91.4102 23.7094 91.4102 23.7094C91.4102 23.7094 92.0089 25.9842 93.8512 28.0788C93.8552 28.0868 93.8592 28.0908 93.8592 28.0908L103.193 21.779V21.781Z" fill="#FF626A"/>
<path d="M111.164 20.4755C111.082 22.2497 110.091 24.2021 108.983 25.4657L112.924 28.1671C114.967 25.9543 115.966 23.3611 115.966 20.111C115.966 17.628 115.235 15.3171 113.979 13.3747C113.154 12.2092 109.812 7.68359 103.538 7.68359C96.9423 7.68359 91.6176 12.2673 91.2031 18.7574H96.0331C96.3095 14.7924 99.5014 12.4776 103.538 12.4776C107.876 12.4776 111.368 16.0941 111.164 20.4775V20.4755Z" fill="white"/>
<path d="M108.721 25.7241C107.395 27.1859 105.843 27.7746 103.752 27.8707C101.54 27.9709 99.5251 27.1298 98.0713 25.7141L94.0684 28.4094C96.3091 30.9746 99.5752 32.6206 103.216 32.6727C106.854 32.7248 110.357 30.8725 112.661 28.4254L108.717 25.7261L108.721 25.7241Z" fill="#FF626A"/>
<path d="M6.45176 24.0539L0.960938 37H8.95488L10.4547 33.4696L6.45176 24.0539Z" fill="white"/>
</svg>
