<svg width="114" height="31" viewBox="0 0 114 31" fill="none" xmlns="http://www.w3.org/2000/svg">
<path d="M38.5117 27.0932V0H44.0144V27.0932H38.5117Z" fill="#5137A6"/>
<path d="M46.0762 27.0932V0H51.5789V27.0932H46.0762Z" fill="#5137A6"/>
<path d="M6.97261 8.86269L11.6797 20.0458H5.40635L0 6.69019H3.70223C5.13063 6.69019 6.41952 7.54557 6.97261 8.86269Z" fill="#FF626A"/>
<path d="M11.5229 19.9744L19.2513 0H12.9812L8.4668 12.4504L11.5229 19.9744Z" fill="#5137A6"/>
<path d="M31.8534 8.44752V10.1384C30.4998 8.84781 28.2857 7.38452 25.1233 7.38452C17.7056 7.38452 12.2195 15.6477 17.3667 23.4674C17.7504 24.0504 22.4176 30.9349 31.8534 24.2364V27.1081H36.5157V8.44752H31.8534ZM29.3454 21.6835C24.4407 25.2396 19.1207 21.8181 19.1207 17.1558C19.1207 13.8422 21.8081 11.1548 25.1233 11.1548C29.7905 11.1548 33.2137 16.4831 29.6427 21.3862C29.5597 21.5008 29.4584 21.6005 29.3454 21.6835Z" fill="#5137A6"/>
<path d="M68.996 8.44752V10.1384C67.6423 8.84781 65.4283 7.38452 62.2659 7.38452C54.8481 7.38452 49.3621 15.6477 54.5093 23.4674C54.893 24.0504 59.5602 30.9349 68.996 24.2364V27.1081H73.6582V8.44752H68.996ZM66.4863 21.6835C61.5816 25.2396 56.2616 21.8181 56.2616 17.1558C56.2616 13.8422 58.949 11.1548 62.2642 11.1548C66.9315 11.1548 70.3546 16.4831 66.7836 21.3862C66.7006 21.5008 66.5993 21.6005 66.4863 21.6835Z" fill="#5137A6"/>
<path d="M112.341 11.0353C111.652 10.062 108.859 6.28003 103.619 6.28003C100.231 6.28003 97.2213 7.90442 95.3262 10.4158C95.5305 10.6715 95.6849 10.8858 95.7912 11.0353C96.62 12.3159 97.1748 13.7908 97.3708 15.377C97.977 12.4139 100.641 10.1982 103.805 10.2879C107.195 10.3842 109.946 13.1762 109.996 16.5662C110.047 20.1306 107.172 23.0372 103.619 23.0372C100.537 23.0372 97.9654 20.8514 97.3708 17.9464C97.1416 19.805 96.4207 21.5092 95.3428 22.9293C97.2396 25.4273 100.239 27.0417 103.619 27.0417C109.353 27.0417 114 22.3944 114 16.6609C114 14.5864 113.389 12.6564 112.341 11.0336V11.0353Z" fill="#5137A6"/>
<path d="M85.5913 18.0659L83.2128 16.5179C82.6 16.1193 81.8127 16.1077 81.1882 16.4864C79.8096 17.3252 75.8184 19.6654 75.8184 19.6654C75.8184 19.6654 76.315 21.5522 77.843 23.2896C77.8464 23.2962 77.8497 23.2995 77.8497 23.2995L85.5913 18.0643V18.0659Z" fill="#FF626A"/>
<path d="M92.2027 16.9831C92.1346 18.4547 91.3124 20.0741 90.3939 21.1222L93.6627 23.3628C95.3568 21.5274 96.1856 19.3765 96.1856 16.6808C96.1856 14.6213 95.5794 12.7045 94.538 11.0934C93.8537 10.1268 91.0816 6.37305 85.8778 6.37305C80.4067 6.37305 75.9903 10.1749 75.6465 15.558H79.6527C79.8819 12.2694 82.5294 10.3493 85.8778 10.3493C89.4754 10.3493 92.3721 13.349 92.2027 16.9848V16.9831Z" fill="#5137A6"/>
<path d="M90.1765 21.3364C89.077 22.5489 87.7897 23.0372 86.0557 23.117C84.2204 23.2 82.5495 22.5024 81.3436 21.3281L78.0234 23.5637C79.882 25.6914 82.591 27.0567 85.6106 27.0999C88.6285 27.1431 91.5335 25.6067 93.4452 23.577L90.1732 21.3381L90.1765 21.3364Z" fill="#FF626A"/>
<path d="M5.35116 19.9512L0.796875 30.6891H7.42733L8.67137 27.7609L5.35116 19.9512Z" fill="#5137A6"/>
</svg>
