<svg width="32" height="32" viewBox="0 0 32 32" fill="none" xmlns="http://www.w3.org/2000/svg">
<path d="M25.3346 15.3337V16.667C25.3346 17.0352 25.0362 17.3337 24.668 17.3337H17.3346V24.667C17.3346 25.0352 17.0362 25.3337 16.668 25.3337H15.3346C14.9664 25.3337 14.668 25.0352 14.668 24.667V17.3337H7.33464C6.96645 17.3337 6.66797 17.0352 6.66797 16.667V15.3337C6.66797 14.9655 6.96645 14.667 7.33464 14.667H14.668V7.33366C14.668 6.96547 14.9664 6.66699 15.3346 6.66699H16.668C17.0362 6.66699 17.3346 6.96547 17.3346 7.33366V14.667H24.668C25.0362 14.667 25.3346 14.9655 25.3346 15.3337Z" fill="#121212"/>
</svg>
