<svg width="9" height="9" viewBox="0 0 9 9" fill="none" xmlns="http://www.w3.org/2000/svg">
<path fill-rule="evenodd" clip-rule="evenodd" d="M5 4V1H4V4H1V5H4V8H5V5H8V4H5Z" fill="#5137A6"/>
<path d="M5 1H5.5C5.5 0.723858 5.27614 0.5 5 0.5V1ZM5 4H4.5C4.5 4.27614 4.72386 4.5 5 4.5V4ZM4 1V0.5C3.72386 0.5 3.5 0.723858 3.5 1H4ZM4 4V4.5C4.27614 4.5 4.5 4.27614 4.5 4H4ZM1 4V3.5C0.723858 3.5 0.5 3.72386 0.5 4H1ZM1 5H0.5C0.5 5.27614 0.723858 5.5 1 5.5V5ZM4 5H4.5C4.5 4.72386 4.27614 4.5 4 4.5V5ZM4 8H3.5C3.5 8.27614 3.72386 8.5 4 8.5V8ZM5 8V8.5C5.27614 8.5 5.5 8.27614 5.5 8H5ZM5 5V4.5C4.72386 4.5 4.5 4.72386 4.5 5H5ZM8 5V5.5C8.27614 5.5 8.5 5.27614 8.5 5H8ZM8 4H8.5C8.5 3.72386 8.27614 3.5 8 3.5V4ZM4.5 1V4H5.5V1H4.5ZM4 1.5H5V0.5H4V1.5ZM4.5 4V1H3.5V4H4.5ZM1 4.5H4V3.5H1V4.5ZM1.5 5V4H0.5V5H1.5ZM4 4.5H1V5.5H4V4.5ZM4.5 8V5H3.5V8H4.5ZM5 7.5H4V8.5H5V7.5ZM4.5 5V8H5.5V5H4.5ZM8 4.5H5V5.5H8V4.5ZM7.5 4V5H8.5V4H7.5ZM5 4.5H8V3.5H5V4.5Z" fill="#5137A6"/>
</svg>
