<svg width="36" height="36" viewBox="0 0 36 36" fill="none" xmlns="http://www.w3.org/2000/svg">
<path d="M24.751 24.085C25.8335 24.085 26.711 23.2075 26.711 22.125C26.711 21.0426 25.8335 20.165 24.751 20.165C23.6685 20.165 22.791 21.0426 22.791 22.125C22.791 23.2075 23.6685 24.085 24.751 24.085Z" fill="#121212"/>
<path fill-rule="evenodd" clip-rule="evenodd" d="M24.7501 25.6249C23.4726 25.6249 20.9176 26.2549 20.8301 27.5149C21.7051 28.7574 23.1401 29.5624 24.7501 29.5624C26.3601 29.5624 27.7951 28.7574 28.6701 27.5149C28.5826 26.2549 26.0276 25.6249 24.7501 25.6249Z" fill="#121212"/>
<path fill-rule="evenodd" clip-rule="evenodd" d="M26.5 14.4075V5.9725L13.375 0.25L0.25 5.9725V14.565C0.25 22.51 5.85 29.9475 13.375 31.75C14.3375 31.5225 15.265 31.19 16.175 30.7875C18.065 33.4825 21.1975 35.25 24.75 35.25C30.5425 35.25 35.25 30.5425 35.25 24.75C35.25 19.5525 31.47 15.2475 26.5 14.4075ZM14.25 24.75C14.25 25.73 14.39 26.6925 14.6525 27.585C14.2325 27.7775 13.8125 27.97 13.375 28.11C7.8275 26.36 3.75 20.69 3.75 14.565V8.265L13.375 4.065L23 8.265V14.4075C18.03 15.2475 14.25 19.5525 14.25 24.75ZM24.75 31.75C20.8825 31.75 17.75 28.6175 17.75 24.75C17.75 20.8825 20.8825 17.75 24.75 17.75C28.6175 17.75 31.75 20.8825 31.75 24.75C31.75 28.6175 28.6175 31.75 24.75 31.75Z" fill="#121212"/>
</svg>
