<svg width="42" height="42" viewBox="0 0 42 42" fill="none" xmlns="http://www.w3.org/2000/svg">
<g clip-path="url(#clip0_1099_14808)">
<path d="M12.25 26.25H24.5V29.75H12.25V26.25ZM12.25 19.25H29.75V22.75H12.25V19.25ZM12.25 12.25H29.75V15.75H12.25V12.25ZM33.25 5.25H25.935C25.2 3.22 23.275 1.75 21 1.75C18.725 1.75 16.8 3.22 16.065 5.25H8.75C8.505 5.25 8.2775 5.2675 8.05 5.32C7.3675 5.46 6.755 5.81 6.2825 6.2825C5.9675 6.5975 5.705 6.9825 5.53 7.4025C5.355 7.805 5.25 8.26 5.25 8.75V33.25C5.25 33.7225 5.355 34.195 5.53 34.615C5.705 35.035 5.9675 35.4025 6.2825 35.735C6.755 36.2075 7.3675 36.5575 8.05 36.6975C8.2775 36.7325 8.505 36.75 8.75 36.75H33.25C35.175 36.75 36.75 35.175 36.75 33.25V8.75C36.75 6.825 35.175 5.25 33.25 5.25ZM21 4.8125C21.7175 4.8125 22.3125 5.4075 22.3125 6.125C22.3125 6.8425 21.7175 7.4375 21 7.4375C20.2825 7.4375 19.6875 6.8425 19.6875 6.125C19.6875 5.4075 20.2825 4.8125 21 4.8125ZM33.25 33.25H8.75V8.75H33.25V33.25Z" fill="#121212"/>
</g>
<defs>
<clipPath id="clip0_1099_14808">
<rect width="42" height="42" fill="white"/>
</clipPath>
</defs>
</svg>
