<svg width="16" height="20" viewBox="0 0 16 20" fill="none" xmlns="http://www.w3.org/2000/svg">
<circle cx="7.61424" cy="5.67161" r="4.37986" stroke="#B7B7B7" stroke-width="1.25" stroke-linecap="round" stroke-linejoin="round"/>
<path fill-rule="evenodd" clip-rule="evenodd" d="M0.667007 16.1431C0.66583 15.8352 0.734691 15.5311 0.86838 15.2537C1.28791 14.4146 2.47097 13.9699 3.45267 13.7686C4.16066 13.6175 4.87844 13.5165 5.60065 13.4665C6.93776 13.3491 8.2826 13.3491 9.61971 13.4665C10.3419 13.5171 11.0596 13.6181 11.7677 13.7686C12.7494 13.9699 13.9325 14.3727 14.352 15.2537C14.6208 15.8191 14.6208 16.4755 14.352 17.0409C13.9325 17.9219 12.7494 18.3246 11.7677 18.5176C11.0605 18.675 10.3425 18.7787 9.61971 18.8281C8.53141 18.9203 7.43803 18.9371 6.3474 18.8784C6.09569 18.8784 5.85236 18.8784 5.60065 18.8281C4.88057 18.7793 4.16528 18.6756 3.46106 18.5176C2.47097 18.3246 1.2963 17.9219 0.86838 17.0409C0.735374 16.7603 0.666582 16.4536 0.667007 16.1431Z" stroke="#B7B7B7" stroke-width="1.25" stroke-linecap="round" stroke-linejoin="round"/>
</svg>
