<svg width="94" height="36" viewBox="0 0 94 36" fill="none" xmlns="http://www.w3.org/2000/svg">
<path d="M52.7443 15.1818C52.6676 14.5341 52.3565 14.0312 51.8111 13.6733C51.2656 13.3153 50.5966 13.1364 49.804 13.1364C49.2244 13.1364 48.7173 13.2301 48.2827 13.4176C47.8523 13.6051 47.5156 13.8629 47.2727 14.1911C47.0341 14.5192 46.9148 14.892 46.9148 15.3097C46.9148 15.6591 46.9979 15.9595 47.1641 16.2109C47.3345 16.4581 47.5518 16.6648 47.8161 16.831C48.0803 16.9929 48.3572 17.1271 48.647 17.2337C48.9368 17.3359 49.2031 17.419 49.446 17.483L50.7756 17.8409C51.1165 17.9304 51.4957 18.054 51.9134 18.2116C52.3352 18.3693 52.7379 18.5845 53.1214 18.8572C53.5092 19.1257 53.8288 19.4709 54.0803 19.8928C54.3317 20.3146 54.4574 20.8324 54.4574 21.446C54.4574 22.1534 54.272 22.7926 53.9013 23.3636C53.5348 23.9347 52.9979 24.3885 52.2905 24.7251C51.5874 25.0618 50.733 25.2301 49.7273 25.2301C48.7898 25.2301 47.978 25.0788 47.2919 24.7763C46.6101 24.4737 46.0732 24.0518 45.6811 23.5107C45.2933 22.9695 45.0739 22.3409 45.0227 21.625H46.6591C46.7017 22.1193 46.8679 22.5284 47.1577 22.8523C47.4517 23.1719 47.8224 23.4105 48.2699 23.5682C48.7216 23.7216 49.2074 23.7983 49.7273 23.7983C50.3324 23.7983 50.8757 23.7003 51.3572 23.5043C51.8388 23.304 52.2202 23.027 52.5014 22.6733C52.7827 22.3153 52.9233 21.8977 52.9233 21.4205C52.9233 20.9858 52.8018 20.6321 52.5589 20.3594C52.3161 20.0866 51.9964 19.8651 51.6001 19.6946C51.2038 19.5241 50.7756 19.375 50.3153 19.2472L48.7045 18.7869C47.6818 18.4929 46.8722 18.0732 46.2756 17.5277C45.679 16.9822 45.3807 16.2685 45.3807 15.3864C45.3807 14.6534 45.5788 14.0142 45.9751 13.4688C46.3757 12.919 46.9126 12.4929 47.5859 12.1903C48.2635 11.8835 49.0199 11.7301 49.8551 11.7301C50.6989 11.7301 51.4489 11.8814 52.1051 12.1839C52.7614 12.4822 53.2813 12.8913 53.6648 13.4112C54.0526 13.9311 54.2571 14.5213 54.2784 15.1818H52.7443ZM58.3677 19.0938V25H56.8592V11.9091H58.3677V16.7159H58.4956C58.7257 16.2088 59.0708 15.8061 59.5311 15.5078C59.9956 15.2053 60.6135 15.054 61.3848 15.054C62.0538 15.054 62.6397 15.1882 63.1426 15.4567C63.6454 15.7209 64.0353 16.1278 64.3123 16.6776C64.5936 17.223 64.7342 17.9176 64.7342 18.7614V25H63.2257V18.8636C63.2257 18.0838 63.0233 17.4808 62.6184 17.0547C62.2179 16.6243 61.6618 16.4091 60.9501 16.4091C60.4558 16.4091 60.0126 16.5135 59.6206 16.7223C59.2328 16.9311 58.926 17.2358 58.7001 17.6364C58.4785 18.0369 58.3677 18.5227 58.3677 19.0938ZM70.3832 25.2301C69.761 25.2301 69.1964 25.1129 68.6893 24.8786C68.1822 24.6399 67.7795 24.2969 67.4812 23.8494C67.1829 23.3977 67.0337 22.8523 67.0337 22.2131C67.0337 21.6506 67.1445 21.1946 67.3661 20.8452C67.5877 20.4915 67.8839 20.2145 68.2546 20.0142C68.6254 19.8139 69.0344 19.6648 69.4819 19.5668C69.9336 19.4645 70.3874 19.3835 70.8434 19.3239C71.44 19.2472 71.9237 19.1896 72.2944 19.1513C72.6694 19.1087 72.9421 19.0384 73.1126 18.9403C73.2873 18.8423 73.3746 18.6719 73.3746 18.429V18.3778C73.3746 17.7472 73.2021 17.2571 72.8569 16.9077C72.516 16.5582 71.9982 16.3835 71.3036 16.3835C70.5835 16.3835 70.0188 16.5412 69.6097 16.8565C69.2006 17.1719 68.913 17.5085 68.7468 17.8665L67.315 17.3551C67.5707 16.7585 67.9116 16.294 68.3377 15.9616C68.7681 15.625 69.2369 15.3906 69.744 15.2585C70.2553 15.1222 70.7582 15.054 71.2525 15.054C71.5678 15.054 71.93 15.0923 72.3391 15.169C72.7525 15.2415 73.1509 15.3928 73.5344 15.6229C73.9222 15.853 74.244 16.2003 74.4996 16.6648C74.7553 17.1293 74.8832 17.7514 74.8832 18.5312V25H73.3746V23.6705H73.2979C73.1957 23.8835 73.0252 24.1115 72.7866 24.3544C72.5479 24.5973 72.2305 24.804 71.8342 24.9744C71.4379 25.1449 70.9542 25.2301 70.3832 25.2301ZM70.6133 23.875C71.2099 23.875 71.7127 23.7578 72.1218 23.5234C72.5352 23.2891 72.8462 22.9865 73.055 22.6158C73.2681 22.245 73.3746 21.8551 73.3746 21.446V20.0653C73.3107 20.142 73.1701 20.2124 72.9528 20.2763C72.7397 20.3359 72.4925 20.3892 72.2113 20.4361C71.9343 20.4787 71.6637 20.517 71.3995 20.5511C71.1396 20.581 70.9286 20.6065 70.7667 20.6278C70.3746 20.679 70.0082 20.7621 69.6673 20.8771C69.3306 20.9879 69.0579 21.1562 68.8491 21.3821C68.6445 21.6037 68.5423 21.9062 68.5423 22.2898C68.5423 22.8139 68.7362 23.2102 69.1239 23.4787C69.516 23.7429 70.0124 23.875 70.6133 23.875ZM77.6365 25V15.1818H79.0939V16.6648H79.1962C79.3752 16.179 79.699 15.7848 80.1678 15.4822C80.6365 15.1797 81.165 15.0284 81.753 15.0284C81.8638 15.0284 82.0023 15.0305 82.1685 15.0348C82.3347 15.0391 82.4604 15.0455 82.5456 15.054V16.5881C82.4945 16.5753 82.3773 16.5561 82.1941 16.5305C82.0151 16.5007 81.8255 16.4858 81.6252 16.4858C81.1479 16.4858 80.7218 16.5859 80.3468 16.7862C79.976 16.9822 79.682 17.255 79.4647 17.6044C79.2516 17.9496 79.1451 18.3437 79.1451 18.7869V25H77.6365ZM88.1515 25.2045C87.2054 25.2045 86.3894 24.9957 85.7033 24.5781C85.0215 24.1562 84.4952 23.5682 84.1245 22.8139C83.758 22.0554 83.5748 21.1733 83.5748 20.1676C83.5748 19.1619 83.758 18.2756 84.1245 17.5085C84.4952 16.7372 85.0108 16.1364 85.6713 15.706C86.3361 15.2713 87.1117 15.054 87.998 15.054C88.5094 15.054 89.0144 15.1392 89.513 15.3097C90.0115 15.4801 90.4654 15.7571 90.8745 16.1406C91.2836 16.5199 91.6096 17.0227 91.8525 17.6491C92.0953 18.2756 92.2168 19.0469 92.2168 19.9631V20.6023H84.6486V19.2983H90.6827C90.6827 18.7443 90.5719 18.25 90.3503 17.8153C90.133 17.3807 89.8219 17.0376 89.4171 16.7862C89.0165 16.5348 88.5435 16.4091 87.998 16.4091C87.3972 16.4091 86.8773 16.5582 86.4384 16.8565C86.0037 17.1506 85.6692 17.5341 85.4348 18.0071C85.2005 18.4801 85.0833 18.9872 85.0833 19.5284V20.3977C85.0833 21.1392 85.2111 21.7678 85.4668 22.2834C85.7267 22.7947 86.0868 23.1847 86.5471 23.4531C87.0073 23.7173 87.5421 23.8494 88.1515 23.8494C88.5478 23.8494 88.9057 23.794 89.2253 23.6832C89.5492 23.5682 89.8283 23.3977 90.0627 23.1719C90.2971 22.9418 90.4782 22.6562 90.606 22.3153L92.0634 22.7244C91.91 23.2188 91.6522 23.6534 91.29 24.0284C90.9277 24.3991 90.4803 24.6889 89.9476 24.8977C89.415 25.1023 88.8162 25.2045 88.1515 25.2045Z" fill="#121212"/>
<circle cx="18" cy="18" r="18" fill="#FAFAFB"/>
<g clip-path="url(#clip0_456_4900)">
<path d="M23 21.4001C22.3667 21.4001 21.8 21.6501 21.3667 22.0417L15.425 18.5834C15.4667 18.3917 15.5 18.2001 15.5 18.0001C15.5 17.8001 15.4667 17.6084 15.425 17.4167L21.3 13.9917C21.75 14.4084 22.3417 14.6667 23 14.6667C24.3833 14.6667 25.5 13.5501 25.5 12.1667C25.5 10.7834 24.3833 9.66675 23 9.66675C21.6167 9.66675 20.5 10.7834 20.5 12.1667C20.5 12.3667 20.5333 12.5584 20.575 12.7501L14.7 16.1751C14.25 15.7584 13.6583 15.5001 13 15.5001C11.6167 15.5001 10.5 16.6167 10.5 18.0001C10.5 19.3834 11.6167 20.5001 13 20.5001C13.6583 20.5001 14.25 20.2417 14.7 19.8251L20.6333 23.2917C20.5917 23.4667 20.5667 23.6501 20.5667 23.8334C20.5667 25.1751 21.6583 26.2667 23 26.2667C24.3417 26.2667 25.4333 25.1751 25.4333 23.8334C25.4333 22.4917 24.3417 21.4001 23 21.4001ZM23 11.3334C23.4583 11.3334 23.8333 11.7084 23.8333 12.1667C23.8333 12.6251 23.4583 13.0001 23 13.0001C22.5417 13.0001 22.1667 12.6251 22.1667 12.1667C22.1667 11.7084 22.5417 11.3334 23 11.3334ZM13 18.8334C12.5417 18.8334 12.1667 18.4584 12.1667 18.0001C12.1667 17.5417 12.5417 17.1667 13 17.1667C13.4583 17.1667 13.8333 17.5417 13.8333 18.0001C13.8333 18.4584 13.4583 18.8334 13 18.8334ZM23 24.6834C22.5417 24.6834 22.1667 24.3084 22.1667 23.8501C22.1667 23.3917 22.5417 23.0167 23 23.0167C23.4583 23.0167 23.8333 23.3917 23.8333 23.8501C23.8333 24.3084 23.4583 24.6834 23 24.6834Z" fill="#121212"/>
</g>
<defs>
<clipPath id="clip0_456_4900">
<rect width="20" height="20" fill="white" transform="translate(8 8)"/>
</clipPath>
</defs>
</svg>
