<svg width="38" height="38" viewBox="0 0 38 38" fill="none" xmlns="http://www.w3.org/2000/svg">
<g clip-path="url(#clip0_1099_15268)">
<path d="M19.0007 3.16675C12.6673 3.16675 6.33398 3.95841 6.33398 9.50008V24.5417C6.33398 27.5976 8.81982 30.0834 11.8757 30.0834L9.50065 32.4584V33.2501H28.5007V32.4584L26.1257 30.0834C29.1815 30.0834 31.6673 27.5976 31.6673 24.5417V9.50008C31.6673 3.95841 25.999 3.16675 19.0007 3.16675ZM27.9623 7.91675H10.1815C11.1473 7.09342 13.4432 6.33342 19.0007 6.33342C24.8748 6.33342 27.1073 7.06175 27.9623 7.91675ZM17.4173 11.0834V15.8334H9.50065V11.0834H17.4173ZM20.584 11.0834H28.5007V15.8334H20.584V11.0834ZM26.1257 26.9167H11.8757C10.5615 26.9167 9.50065 25.8559 9.50065 24.5417V19.0001H28.5007V24.5417C28.5007 25.8559 27.4398 26.9167 26.1257 26.9167Z" fill="#18202F"/>
<path d="M13.459 25.3334C14.7707 25.3334 15.834 24.2701 15.834 22.9584C15.834 21.6467 14.7707 20.5834 13.459 20.5834C12.1473 20.5834 11.084 21.6467 11.084 22.9584C11.084 24.2701 12.1473 25.3334 13.459 25.3334Z" fill="#18202F"/>
<path d="M24.541 25.3334C25.8527 25.3334 26.916 24.2701 26.916 22.9584C26.916 21.6467 25.8527 20.5834 24.541 20.5834C23.2293 20.5834 22.166 21.6467 22.166 22.9584C22.166 24.2701 23.2293 25.3334 24.541 25.3334Z" fill="#18202F"/>
</g>
<defs>
<clipPath id="clip0_1099_15268">
<rect width="38" height="38" fill="white"/>
</clipPath>
</defs>
</svg>
