<svg width="221" height="60" viewBox="0 0 221 60" fill="none" xmlns="http://www.w3.org/2000/svg">
<path d="M78.2873 20.4955C78.2873 18.1253 76.4051 16.1733 74.0349 16.1036C71.6646 16.1036 69.7127 17.9859 69.7127 20.3561C69.7127 22.7263 71.5949 24.6783 73.9652 24.748C76.3354 24.8177 78.2873 22.8658 78.2873 20.4955Z" fill="#ABABAB"/>
<path d="M68.4578 14.6397C68.4578 12.2694 66.5059 10.3872 64.1357 10.3872C61.7654 10.3872 59.8832 12.3391 59.8135 14.7094C59.8135 17.0796 61.6957 18.9618 64.1357 18.9618C66.5756 18.9618 68.4578 17.0099 68.4578 14.6397Z" fill="#ABABAB"/>
<path d="M57.5827 18.195C57.5827 15.8248 55.6307 13.8728 53.2605 13.8728C50.8903 13.8031 48.9383 15.7551 48.9383 18.195C48.9383 20.5652 50.8903 22.5172 53.2605 22.5172C55.6307 22.5172 57.5827 20.5652 57.5827 18.195Z" fill="#ABABAB"/>
<path d="M32.8347 5.78615V9.82948C32.8347 11.154 32.8347 12.4089 32.765 13.8031C34.6472 12.7574 36.39 11.8512 38.4117 10.8055C38.4284 10.9391 38.4491 11.0687 38.469 11.1933C38.5322 11.589 38.5874 11.9347 38.4814 12.1997C38.126 13.3167 37.7521 14.4152 37.3799 15.5087C36.73 17.418 36.0854 19.312 35.5535 21.2624C34.5078 24.9571 37.9934 28.3731 41.6882 27.3971C44.6858 26.6302 46.2892 23.772 45.3132 20.7744L42.5247 12.1997C42.4187 11.9347 42.4739 11.589 42.5371 11.1934C42.557 11.0687 42.5777 10.9391 42.5944 10.8055C44.6858 11.8512 46.4286 12.7574 48.2412 13.7334V5.71644C46.6378 6.27414 45.1041 6.76213 43.5704 7.18041C43.2916 7.31983 42.7339 7.31983 42.5944 7.11069C42.3853 6.97127 42.455 6.41357 42.5247 6.13472C43.1521 4.11308 43.7796 2.09135 44.4767 0H36.6689C36.6994 0.0916975 36.7166 0.169993 36.7321 0.240762C36.752 0.3314 36.7691 0.409693 36.8083 0.487987C36.9316 0.871472 37.0548 1.25227 37.1776 1.63143C37.6795 3.18221 38.1727 4.70567 38.6208 6.27414C38.6905 6.55299 38.6208 6.97127 38.4814 7.18041C38.342 7.31983 37.9237 7.31983 37.6448 7.25011C37.1801 7.15716 36.7153 7.00225 36.2506 6.84733C36.0182 6.76987 35.7858 6.69242 35.5535 6.6227C34.7169 6.34385 33.8106 6.06501 32.8347 5.78615Z" fill="#ABABAB"/>
<path d="M32.277 18.195C32.277 15.8248 30.325 13.8728 27.9548 13.8728C25.5846 13.8728 23.6326 15.7551 23.6326 18.195C23.6326 20.5652 25.5846 22.5172 27.9548 22.5172C30.2553 22.5172 32.277 20.5652 32.277 18.195Z" fill="#ABABAB"/>
<path d="M21.3321 14.7094C21.3321 12.2694 19.3801 10.3872 17.0099 10.3872C14.6397 10.4569 12.6877 12.3391 12.6877 14.7094C12.6877 17.0796 14.6397 19.0316 17.0099 19.0316C19.4498 19.0316 21.3321 17.0796 21.3321 14.7094Z" fill="#ABABAB"/>
<path d="M13.2419 46.787C13.603 46.9964 13.9706 47.2095 14.3608 47.4046C14.1306 46.6645 13.9042 45.9322 13.6808 45.2094C12.9572 42.8687 12.2648 40.6285 11.5723 38.5511C11.5169 38.6896 11.462 38.828 11.4071 38.9663C10.7711 40.5691 10.1425 42.153 8.92322 43.5007C8.20479 41.7046 8.46326 39.96 8.7272 38.1784C8.77059 37.8855 8.81413 37.5916 8.85351 37.2963C7.71407 37.7285 6.61892 38.1164 5.5431 38.4975C4.71013 38.7925 3.88874 39.0834 3.06735 39.3877C3.38878 39.9234 3.71021 40.4385 4.02373 40.941C4.52618 41.7462 5.00832 42.5189 5.43759 43.2916C8.2958 48.2412 10.0386 53.6091 11.3632 59.1163C11.5723 59.9529 11.9209 60.0923 12.6877 59.9529C20.9138 58.7678 29.1399 58.2798 37.366 58.1404C47.8926 57.9312 58.2798 58.4889 68.667 59.9529C69.3641 60.0226 69.7824 59.9529 69.8521 59.1861C69.9915 58.4889 70.2007 57.7918 70.4098 57.0947C72.0829 51.0994 74.1743 45.2435 77.7994 40.0848C77.8558 40.0001 77.9009 39.9153 77.9484 39.826C78.0182 39.6947 78.0932 39.5535 78.2176 39.3877C76.6741 38.8915 75.1742 38.3518 73.649 37.803C73.2454 37.6578 72.8399 37.5119 72.4315 37.366C72.4798 37.7283 72.5364 38.0884 72.5928 38.4465C72.8617 40.1557 73.1231 41.8172 72.4315 43.431L72.0829 43.5704C71.8371 43.0564 71.5912 42.5352 71.3431 42.0092C70.8172 40.8943 70.281 39.7576 69.7127 38.6208C69.3374 39.8623 68.974 41.1037 68.6077 42.3551C68.0896 44.1253 67.5657 45.9153 66.9939 47.7532C67.1762 47.6403 67.3552 47.5264 67.5323 47.4137C68.7779 46.6212 69.9297 45.8883 71.4555 46.0104C70.6887 47.3349 69.9218 48.6594 69.0155 49.8446C68.0396 51.1691 66.7847 52.1451 65.1814 52.6331C63.4385 53.1211 61.5563 52.4936 60.5106 51.0994C59.6043 49.8446 59.4649 47.9623 60.2317 46.6378C61.138 45.0344 62.7414 44.895 63.9265 46.2892C64.0775 46.4402 64.208 46.632 64.3513 46.8426C64.4727 47.021 64.6032 47.2128 64.7631 47.4046C65.4602 45.8012 65.9482 44.2675 64.9722 42.8036C63.8568 41.1305 62.1837 41.2699 60.3712 41.7579C65.1814 36.5991 64.1357 32.4861 61.3472 29.0005C56.7461 32.2073 56.2581 36.4597 58.4889 41.5487C56.2581 39.8756 54.6547 39.6665 53.4696 40.7819C52.3542 41.7579 52.0754 43.9887 52.9119 45.3829C52.9613 45.3336 53.0107 45.2929 53.057 45.2548C53.1414 45.1854 53.2155 45.1244 53.2605 45.0344C53.8879 44.2675 54.6547 43.6401 55.7004 44.0584C56.7461 44.407 57.0947 45.3132 57.2341 46.3589C57.4433 48.1715 56.537 49.496 55.073 50.472C53.6788 51.3782 52.1451 51.7965 50.5417 51.8662C44.8253 52.0056 41.967 49.4263 42.1762 43.2219C45.0943 43.4255 46.8233 45.4128 48.6494 47.5118C48.6992 47.5689 48.749 47.6262 48.7989 47.6835C48.9034 46.4286 49.008 45.2032 49.1126 43.9778C49.2869 41.9354 49.4611 39.8931 49.6354 37.7146C47.4743 39.8756 45.1041 40.9911 41.967 40.9213C42.2349 40.4972 42.4885 40.0873 42.7347 39.6895C43.2572 38.8449 43.7463 38.0545 44.2675 37.2963C44.7992 36.4746 45.3979 35.72 46.0171 34.9395C46.291 34.5942 46.569 34.2438 46.8469 33.8804H34.5078C34.7496 34.1872 34.9914 34.4892 35.2312 34.7886C36.789 36.7339 38.263 38.5745 39.1088 40.9911C37.7843 40.8516 36.39 40.6425 35.2049 40.1545C34.3032 39.7537 33.5094 39.209 32.6944 38.6496C32.3752 38.4305 32.0528 38.2092 31.7193 37.9934C31.789 38.7953 31.8587 39.5928 31.9284 40.3903C32.1376 42.7821 32.3467 45.174 32.5558 47.6835C32.6046 47.6275 32.6532 47.5716 32.7018 47.5157C34.5292 45.4153 36.2603 43.4256 39.2482 43.2219C39.2153 43.584 39.1979 43.9151 39.1814 44.2298C39.163 44.5814 39.1456 44.9124 39.1088 45.2435C38.83 48.8686 37.0871 50.96 33.6015 51.6571C33.0438 51.7965 32.5558 51.8662 31.9981 51.8662C29.6976 51.9359 27.4668 51.5177 25.6543 49.984C24.1206 48.7292 23.6326 46.8469 24.3994 45.2435C25.0966 43.8493 26.4908 43.5007 27.6759 44.5464C27.9548 44.8252 28.2336 45.1738 28.5125 45.5224C29.2793 43.5704 29.0005 41.6882 27.8851 40.7819C26.212 39.3877 24.6783 40.2242 23.0749 41.3396C23.1412 41.1347 23.208 40.9314 23.2744 40.7294C23.9759 38.5942 24.6301 36.6034 24.1206 34.4381C23.5629 32.0678 21.9595 30.4644 20.0772 28.9308C16.5219 33.3924 17.0796 37.5751 21.1229 41.6882C19.1013 41.2002 17.4282 41.0608 16.3825 42.7339C15.4762 44.1978 15.9642 45.6618 16.6613 47.2652C16.743 47.1018 16.8247 46.9863 16.8923 46.8907C16.9402 46.823 16.981 46.7652 17.0099 46.7075C17.7767 45.4527 18.683 44.9647 19.5893 45.1738C20.635 45.383 21.4018 46.4984 21.6109 47.7532C22.0292 51.0297 18.8224 53.4696 15.6156 52.1451C12.6877 50.8903 11.2237 48.3806 9.82949 45.5921C11.1809 45.5921 12.1835 46.1734 13.2419 46.787Z" fill="#ABABAB"/>
<path d="M11.5026 20.4258C11.5026 18.0556 9.62035 16.1036 7.25011 16.1036C4.87988 16.1036 2.92793 18.0556 2.85822 20.4258C2.85822 22.796 4.81017 24.748 7.1804 24.748C9.55063 24.748 11.5026 22.796 11.5026 20.4258Z" fill="#ABABAB"/>
<path d="M4.32218 26.9788C1.95195 26.9788 0 28.9308 0 31.301C0 33.6712 1.95195 35.6232 4.32218 35.5535C6.76213 35.5535 8.64437 33.6712 8.64437 31.301C8.64437 28.861 6.69241 26.9788 4.32218 26.9788Z" fill="#ABABAB"/>
<path d="M72.5709 31.3707C72.5709 33.8106 74.4531 35.6232 76.8931 35.6232C79.2633 35.6232 81.2153 33.6712 81.2153 31.301C81.1455 28.9308 79.2633 27.0485 76.8234 27.0485C74.4531 27.0485 72.5709 28.9308 72.5709 31.3707Z" fill="#ABABAB"/>
<path d="M114.421 47.5915H118.63C118.63 43.2973 118.63 39.1103 118.517 34.9235H107.481V38.6809H113.624C113.624 41.0428 112.714 42.4384 110.894 43.2972C107.822 44.6929 104.068 43.6193 102.475 40.7207C100.882 37.7147 100.882 34.4941 102.475 31.3807C104.068 28.3748 108.05 27.3012 111.122 29.0189C111.969 29.4985 112.626 30.1566 113.33 30.8604C113.571 31.1018 113.818 31.3486 114.08 31.5954C114.627 31.3139 115.195 31.0118 115.786 30.6982C116.546 30.2943 117.343 29.8713 118.175 29.4483C116.014 25.7982 112.145 23.8658 107.14 24.1879C102.589 24.5099 99.2895 26.6571 97.3555 30.6292C96.2178 33.3131 95.9903 35.997 96.4453 38.7883C97.2417 43.7267 100.769 47.1621 105.774 47.9135C108.96 48.343 111.804 47.6988 114.307 45.337C114.307 45.7973 114.34 46.2267 114.37 46.6253C114.396 46.9705 114.421 47.2925 114.421 47.5915Z" fill="#ABABAB"/>
<path fill-rule="evenodd" clip-rule="evenodd" d="M126.708 46.0885C130.69 48.5577 134.899 48.7724 139.109 46.7326C143.546 44.5855 145.138 40.6133 145.252 37.2853C145.366 27.4085 137.857 22.0408 129.552 24.6173C124.432 26.2276 121.247 31.0587 121.588 36.6412C121.816 40.506 123.181 43.834 126.708 46.0885ZM133.876 28.2671C137.062 28.4818 139.451 30.8436 139.906 34.279C140.02 34.9231 140.02 35.5673 140.02 36.3187H140.134C140.062 36.6933 140.001 37.0678 139.941 37.4389C139.811 38.2379 139.684 39.021 139.451 39.7541C138.427 42.438 136.266 43.941 133.308 43.941C130.463 43.941 128.188 42.3307 127.278 39.6468C126.481 37.4997 126.481 35.3526 127.05 33.2054C127.96 29.8774 130.577 28.0523 133.876 28.2671Z" fill="#ABABAB"/>
<path d="M152.988 47.0547C152.988 47.3768 153.557 47.6988 153.899 47.6988H160.042C162.318 39.9692 164.593 32.3469 166.982 24.5099H161.407C160.559 27.7726 159.674 31.0353 158.794 34.2778C158.139 36.6899 157.488 39.0908 156.857 41.4722C156.515 41.2307 156.43 40.9891 156.361 40.7928C156.338 40.7274 156.316 40.667 156.288 40.6133C154.923 35.5676 153.557 30.5219 152.078 25.4762C151.965 25.0467 151.396 24.4026 151.054 24.4026C150.001 24.3316 148.947 24.3545 147.86 24.3782C147.304 24.3903 146.74 24.4026 146.162 24.4026C147.869 30.1997 149.575 35.8156 151.282 41.4315C151.851 43.3036 152.42 45.1758 152.988 47.0547Z" fill="#ABABAB"/>
<path d="M166.641 44.9076C166.641 46.6253 168.006 48.0209 169.826 48.0209C171.533 48.0209 172.898 46.6253 172.898 45.0149C173.012 43.4046 171.533 41.9016 169.826 41.9016C168.12 41.7943 166.641 43.1899 166.641 44.9076Z" fill="#ABABAB"/>
<path d="M195.766 38.7883V24.4026H190.76V38.8956C190.76 41.2575 189.622 42.8678 187.574 43.512C183.706 44.6929 180.634 42.6531 180.634 38.7883V24.4026H175.629C175.515 24.832 175.515 25.1541 175.515 25.4762C175.515 26.7074 175.508 27.9452 175.501 29.1864C175.479 32.9238 175.458 36.6915 175.629 40.3986C175.742 43.512 177.676 45.7664 180.634 46.84C182.682 47.5915 184.958 47.9136 187.119 47.8062C192.58 47.4841 195.766 44.0487 195.766 38.7883Z" fill="#ABABAB"/>
<path d="M213.855 46.84C214.082 47.1621 214.537 47.6988 214.993 47.6988L220.226 47.8062C217.495 43.7267 214.993 39.8618 212.49 35.997C211.011 33.7426 211.011 33.7426 212.831 31.8102C214.645 29.927 216.387 28.0438 218.23 26.0518C218.698 25.5455 219.173 25.0321 219.657 24.5099C219.366 24.5099 219.106 24.5243 218.87 24.5372C218.461 24.5597 218.126 24.5781 217.837 24.5099C214.651 23.9732 212.49 25.0467 210.669 27.6233C209.512 29.3387 208.056 30.8843 206.604 32.4245C206.057 33.0048 205.51 33.5844 204.981 34.172L204.64 34.0646V24.5099H199.748V47.6988H204.753C204.753 47.1621 204.779 46.6253 204.804 46.0885C204.854 45.0149 204.905 43.9414 204.753 42.8678C204.407 40.8276 205.574 39.7179 206.802 38.5485C207.19 38.1796 207.584 37.8046 207.939 37.3927C209.104 39.2858 210.232 41.0747 211.344 42.8384C212.187 44.1752 213.021 45.4976 213.855 46.84Z" fill="#ABABAB"/>
</svg>
