<svg width="24" height="24" viewBox="0 0 24 24" fill="none" xmlns="http://www.w3.org/2000/svg">
<path d="M12.0005 6C13.1005 6 14.0005 6.9 14.0005 8C14.0005 9.1 13.1005 10 12.0005 10C10.9005 10 10.0005 9.1 10.0005 8C10.0005 6.9 10.9005 6 12.0005 6ZM12.0005 15C14.7005 15 17.8005 16.29 18.0005 17V18H6.00049V17.01C6.20049 16.29 9.30049 15 12.0005 15ZM12.0005 4C9.79049 4 8.00049 5.79 8.00049 8C8.00049 10.21 9.79049 12 12.0005 12C14.2105 12 16.0005 10.21 16.0005 8C16.0005 5.79 14.2105 4 12.0005 4ZM12.0005 13C9.33049 13 4.00049 14.34 4.00049 17V20H20.0005V17C20.0005 14.34 14.6705 13 12.0005 13Z" fill="#121212"/>
</svg>
