<svg width="38" height="38" viewBox="0 0 38 38" fill="none" xmlns="http://www.w3.org/2000/svg">
<g clip-path="url(#clip0_1099_15250)">
<path d="M33.25 11.5267V7.91667C33.25 6.175 31.825 4.75 30.0833 4.75H7.91667C6.15917 4.75 4.75 6.175 4.75 7.91667V30.0833C4.75 31.825 6.15917 33.25 7.91667 33.25H30.0833C31.825 33.25 33.25 31.825 33.25 30.0833V26.4733C34.1842 25.9192 34.8333 24.9217 34.8333 23.75V14.25C34.8333 13.0783 34.1842 12.0808 33.25 11.5267ZM31.6667 14.25V23.75H20.5833V14.25H31.6667ZM7.91667 30.0833V7.91667H30.0833V11.0833H20.5833C18.8417 11.0833 17.4167 12.5083 17.4167 14.25V23.75C17.4167 25.4917 18.8417 26.9167 20.5833 26.9167H30.0833V30.0833H7.91667Z" fill="#18202F"/>
<path d="M25.334 21.375C26.6457 21.375 27.709 20.3117 27.709 19C27.709 17.6883 26.6457 16.625 25.334 16.625C24.0223 16.625 22.959 17.6883 22.959 19C22.959 20.3117 24.0223 21.375 25.334 21.375Z" fill="#18202F"/>
</g>
<defs>
<clipPath id="clip0_1099_15250">
<rect width="38" height="38" fill="white"/>
</clipPath>
</defs>
</svg>
