<svg width="20" height="20" viewBox="0 0 20 20" fill="none" xmlns="http://www.w3.org/2000/svg">
<path fill-rule="evenodd" clip-rule="evenodd" d="M9.99948 1.66699C6.86959 1.66797 4.00418 3.42264 2.5806 6.21004C1.15702 8.99744 1.41536 12.3475 3.24948 14.8837L2.49948 17.167C2.44792 17.3161 2.48685 17.4815 2.59948 17.592C2.67897 17.6718 2.78687 17.7167 2.89948 17.717H3.02448L5.39948 16.9503C8.37281 18.9174 12.2682 18.7752 15.0901 16.5965C17.9121 14.4178 19.0355 10.6853 17.8849 7.31088C16.7343 3.9365 13.5646 1.66783 9.99948 1.66699ZM16.6659 10.0007C16.6659 13.6826 13.6811 16.6673 9.99919 16.6673C6.31729 16.6673 3.33252 13.6826 3.33252 10.0007C3.33252 6.31878 6.31729 3.33401 9.99919 3.33401C11.7673 3.33401 13.463 4.03639 14.7132 5.28664C15.9635 6.53688 16.6659 8.23257 16.6659 10.0007ZM12.733 13.9006C13.3191 13.7982 13.8258 13.4327 14.108 12.909C14.2513 12.6023 14.2978 12.2593 14.2413 11.9256C14.201 11.8584 14.0955 11.8074 13.9511 11.7376C13.9166 11.721 13.8799 11.7032 13.8413 11.684C13.6413 11.584 12.633 11.084 12.4413 11.0256C12.2604 10.9385 12.0429 10.9991 11.933 11.1673C11.7699 11.4242 11.5889 11.6692 11.3913 11.9006C11.2566 12.0264 11.0596 12.0593 10.8913 11.984C10.2767 11.7492 9.71145 11.4016 9.22468 10.959C8.77741 10.5446 8.39282 10.0674 8.08301 9.54229C7.99243 9.39567 8.02856 9.20416 8.16635 9.10063C8.22188 9.03121 8.27998 8.97207 8.3378 8.91322C8.3841 8.8661 8.43021 8.81917 8.47468 8.76729C8.5645 8.67001 8.64024 8.56061 8.69968 8.44229C8.76648 8.32325 8.76648 8.17801 8.69968 8.05896C8.64968 7.95896 8.21635 6.89229 8.07468 6.54229C7.93301 6.19229 7.83301 6.19229 7.62468 6.19229H7.39135C7.1268 6.18123 6.86785 6.27053 6.66635 6.44229C6.17613 6.87787 5.89686 7.50319 5.89968 8.15896C5.96533 8.93063 6.25497 9.66632 6.73301 10.2756C7.59398 11.6098 8.80462 12.6821 10.233 13.3756C11.8997 14.0423 12.3663 13.984 12.733 13.9006Z" fill="#121212"/>
</svg>
